<?xml version="1.0" encoding="UTF-8"?>
<svg id="Layer_1" data-name="Layer 1" xmlns="http://www.w3.org/2000/svg" viewBox="0 0 1000 1000">
  <defs>
    <style>
      .cls-1 {
        fill: none;
      }

      .cls-2, .cls-3 {
        fill: #231f20;
      }

      .cls-3, .cls-4 {
        font-family: Raleway-Black, Raleway;
        font-size: 70.46px;
        font-weight: 800;
      }

      .cls-5, .cls-4 {
        fill: #00b1e6;
      }
    </style>
  </defs>
  <path class="cls-2" d="M607.78,174.55l-27.38,130.31-6.39,30.48-4.82,22.92-19.73,93.88-12.98,61.75-5.36,25.5-5.7,27.16-.94,4.48-7.71,36.65c2.25,10.82,8.34,20.75,17.25,29.05l-.05.24h-92.03l28.06-134.27,5.69-27.19,4.89-23.36h-25.17l-47.1-54.28-34.37-39.6h126.26l4.79-22.92,21.15-101.11-45.86-59.68h127.52Z"/>
  <polygon class="cls-2" points="324.77 335.34 344.66 358.26 402.59 425.03 396.89 452.14 358.06 636.97 237.83 636.97 276.67 452.14 296.4 358.26 301.22 335.34 305.81 313.5 311.51 286.34 322.27 235.16 275.69 174.55 455.22 174.55 421.43 335.34 324.77 335.34"/>
  <polygon class="cls-5" points="941.72 210.59 929.78 266.77 912.58 347.7 907.63 371.02 904.99 371.02 877.66 347.7 805.08 285.81 809.13 266.77 732.83 266.77 727.91 289.92 715.64 347.7 622.88 347.7 642.29 371.02 696.77 436.48 691.13 463 673.85 544.39 750.16 544.39 757.57 509.5 763.35 482.24 767.44 463 747.34 463 702.57 409.21 670.77 371.02 823 371.02 894.65 432.13 888.09 463 870.79 544.39 859.46 597.69 853.68 624.95 851.12 636.97 568.58 636.97 539.94 611.66 554.24 544.39 571.54 463 591.08 371.02 596.03 347.7 601.5 322 607.28 294.75 613.23 266.77 626.65 203.57 632.82 174.55 915.39 174.55 941.01 196.4 941.72 210.59"/>
  <path class="cls-5" d="M872.13,658.19s0,.08-.02.14v.05c-.03.19-.06.39-.09.58-8.01,47.71-22.5,91.62-43,129.32-17.11,29.46-32.77,49.38-45.09,62.65,0,.02-.02.03-.05.05-7.32,7.67-15.05,14.8-23.17,21.35-.03.03-.06.06-.09.08-.14.11-.28.22-.42.33-24.05,19.34-51.53,33.57-82.21,41.6-183.08,47.91-380.46-72.59-490.99-320.62C96.21,389.98,138.77,122.57,328.43,42.7c0,0,.08-.05.24-.11,13.24-5.56,27.19-10.21,41.87-13.86,2.67-.9,5.34-1.73,8.03-2.51.02-.02.03-.02.06-.02,41.44-8.97,104.12-12.5,170.92,19.9,17.59,8.55,35.46,19.56,53.3,33.63,0,0-157.18-70.84-274.2,20.09-.08.05-.14.09-.22.16-117.07,96.76-135.76,299.44-64.83,459.15,82.85,186.54,288.91,328.8,437.86,290.05,11.75-3.06,21.35-6.77,28.28-9.79l19.91-10.13s.02-.02.06-.03c2.67-1.08,88.41-37.11,122.43-171.05Z"/>
  <path class="cls-2" d="M292.9,26.51s-146.93,29.94-214.02,226.22c-67.09,196.28,43.8,452.99,130.3,546.14,86.5,93.15,148.23,142.68,278.34,172.99,130.11,30.31,217.35-33.82,217.35-33.82,0,0-82.06,42.69-212.36,11.09-130.3-31.6-233.43-139.54-268.17-190.18S42.84,495.03,120.47,223.34c17.74-67.09,97.03-169.66,172.44-196.83Z"/>
  <path class="cls-5" d="M331.53,118.73s56.19-44.36,149.33-39.92c93.15,4.44,178.17,73.19,178.17,73.19h-49.16s-68.75-46.57-133.07-53.97c-64.32-7.39-113.11,3.7-145.27,20.7Z"/>
  <path class="cls-1" d="M665.32,838.79s67.27-30.31,100.91-86.87c33.64-56.55,34.38-69.71,41.77-93.26h26.61s-19.22,64.8-52.86,102.5-68.38,65.06-116.44,77.62Z"/>
  <path class="cls-5" d="M750.7,288.77l-2.77,14.05s17.37,29.57,24.03,45.65h35.49s-20.52-49.72-29.76-59.7h-26.98Z"/>
  <path class="cls-5" d="M834.61,658.67c-5.76,22.67-18.73,60.93-49.59,98.69-43.33,53.02-96.47,73.86-119.71,81.43,91.3-44.36,130.85-127.53,142.68-180.12h26.61Z"/>
  <text class="cls-3" transform="translate(360.93 687.26)"><tspan x="0" y="0">HORIZON</tspan></text>
  <text class="cls-4" transform="translate(513.74 757.12)"><tspan x="0" y="0">GROUP</tspan></text>
</svg>