<?xml version="1.0" encoding="UTF-8"?>
<svg id="Layer_1" data-name="Layer 1" xmlns="http://www.w3.org/2000/svg" viewBox="0 0 500 500">
  <defs>
    <style>
      .cls-1 {
        fill: #fff;
      }
    </style>
  </defs>
  <path class="cls-1" d="M409.52,327c-3-9.93-7.4-19.44-19.6-19.94-1.38-.06-2.69.38-3.98.66-1.02.22-2.02.35-3.03.06-1.6-.46-3.58-3.66-5.31-4.84-1.2-.82-2.42-1.46-3.66-1.96-5.91-2.34-12.17-1.15-18.22,1.38-1.39-2.73-3.25-4.85-5.43-6.4-3.44-2.44-7.67-3.46-12-3.24-2.81.15-5.66.82-8.38,1.95-1.39-1.12-6.6-26.08-8.71-30.78-9.32-20.8-39.37-13.82-37.05,9.52l19.17,73.06c-11.1-5.63-28.6-10.57-35.24,3.77-2.45,5.3-1.77,10.55.8,15.58,2.1,4.17,5.5,8.2,9.44,12,8.7,8.39,20.08,15.69,26.35,20.99,8.34,7.05,15.92,14.24,23.55,20.31,6.24,4.98,12.5,9.2,19.23,12,12.6,5.25,26.82,5.51,45.51-3.72,44.2-21.82,27.8-63.17,16.56-100.4ZM385.63,420.06c-5.78,2.49-11.05,3.91-15.91,4.46-9.62,1.1-17.68-1.21-25.1-5.4-11.25-6.35-21.04-17.02-32.61-26.74-4.23-3.55-11.83-8.97-18.86-14.56-5.2-4.13-10.11-8.36-13.1-12-1-1.2-1.79-2.35-2.31-3.4-2.89-5.85-1.53-12,5.86-12.34,3.18-.14,7.79,1.79,10.73,3.08,4.35,1.91,14.35,10.17,16.99,10.6,2.86.47,4.97-1.75,5.39-4.4l-23.28-87.92c.71-11.17,13.32-14.47,18.66-3.95l16.89,60.2c2.48,3.44,7.71,1.89,8.31-1.91.76-4.77-5.82-18.95-4.44-21.35,2.04-1.05,3.84-1.67,5.44-1.94,7.01-1.16,10.08,4.57,12,11.72,1.98,7.36,2.75,16.21,5.34,20.56.55.92,3.15,2.11,4.12,2.13,12.44.35-4.5-23.18,2.53-26.46,5.55-2.59,9.15-.81,11.66,3.01,5.84,8.84,5.86,28.58,10.78,30.1.43.13.84.23,1.22.31,11.22,2.19.87-20.32.13-25.41,2.54-3.31,9.26-.31,11.15,2.58,4.2,16.14,11.04,33.8,14.12,50.04,4.48,23.53-3.69,39.52-25.71,48.99Z"/>
  <path class="cls-1" d="M332.76,88.76h-194.94c-9.66,0-17.53,7.87-17.53,17.53v254c0,9.67,7.87,17.53,17.53,17.53h127.1c-2.98-3.76-5.41-7.78-6.88-12h-120.22c-3.05,0-5.53-2.48-5.53-5.53V106.29c0-3.04,2.48-5.53,5.53-5.53h194.94c3.05,0,5.53,2.49,5.53,5.53v176.43c.39-.02.78-.03,1.16-.03,3.85,0,7.51.7,10.84,2.01V106.29c0-9.66-7.86-17.53-17.53-17.53Z"/>
  <path class="cls-1" d="M348.53,61.94H121.24c-20.63,0-37.42,16.78-37.42,37.41v294.36c0,20.62,16.79,37.41,37.42,37.41h206.24c-5.03-3.62-9.89-7.73-14.77-12H121.24c-14.02,0-25.42-11.4-25.42-25.41V99.35c0-14.01,11.4-25.41,25.42-25.41h227.29c14.01,0,25.41,11.4,25.41,25.41v191.17c3.29.79,6.4,2.18,9.3,4.16,1.04.72,1.93,1.53,2.7,2.32V99.35c0-20.63-16.78-37.41-37.41-37.41Z"/>
  <path class="cls-1" d="M299.94,137.47h-127.06c-3.31,0-6-2.69-6-6s2.69-6,6-6h127.06c3.31,0,6,2.69,6,6s-2.69,6-6,6Z"/>
  <path class="cls-1" d="M299.94,171.35h-127.06c-3.31,0-6-2.69-6-6s2.69-6,6-6h127.06c3.31,0,6,2.69,6,6s-2.69,6-6,6Z"/>
  <path class="cls-1" d="M299.94,205.24h-127.06c-3.31,0-6-2.69-6-6s2.69-6,6-6h127.06c3.31,0,6,2.69,6,6s-2.69,6-6,6Z"/>
  <path class="cls-1" d="M240.18,236.76h-67.29c-3.31,0-6-2.69-6-6s2.69-6,6-6h67.29c3.31,0,6,2.69,6,6s-2.69,6-6,6Z"/>
  <path class="cls-1" d="M268.53,402.59h-67.29c-2.76,0-5-2.24-5-5s2.24-5,5-5h67.29c2.76,0,5,2.24,5,5s-2.24,5-5,5Z"/>
  <path class="cls-1" d="M240.18,272.06h-67.29c-3.31,0-6-2.69-6-6s2.69-6,6-6h67.29c3.31,0,6,2.69,6,6s-2.69,6-6,6Z"/>
</svg>