<?xml version="1.0" encoding="UTF-8"?>
<svg id="Layer_1" data-name="Layer 1" xmlns="http://www.w3.org/2000/svg" xmlns:xlink="http://www.w3.org/1999/xlink" viewBox="0 0 500 500">
  <defs>
    <style>
      .cls-1 {
        fill: url(#linear-gradient-2);
      }

      .cls-2 {
        fill: url(#linear-gradient-4);
        stroke: #eb7d42;
        stroke-miterlimit: 10;
        stroke-width: .5px;
      }

      .cls-3 {
        fill: #1e1854;
      }

      .cls-4 {
        fill: none;
      }

      .cls-5 {
        fill: url(#linear-gradient-3);
      }

      .cls-6 {
        fill: #3da1d9;
      }

      .cls-7 {
        fill: #999;
      }

      .cls-8 {
        fill: #73c4ed;
      }

      .cls-9 {
        fill: #7dcdf2;
      }

      .cls-10 {
        fill: url(#linear-gradient);
      }

      .cls-11 {
        fill: #ec1e24;
      }
    </style>
    <linearGradient id="linear-gradient" x1="87.09" y1="-662.94" x2="91.69" y2="-662.94" gradientTransform="translate(0 -401.88) scale(1 -1)" gradientUnits="userSpaceOnUse">
      <stop offset="0" stop-color="#2b2f82"/>
      <stop offset="1" stop-color="#4162ac"/>
    </linearGradient>
    <linearGradient id="linear-gradient-2" x1="176.45" y1="-678.03" x2="203.13" y2="-678.03" xlink:href="#linear-gradient"/>
    <linearGradient id="linear-gradient-3" x1="204.21" y1="-689.24" x2="261.93" y2="-689.24" xlink:href="#linear-gradient"/>
    <linearGradient id="linear-gradient-4" x1="10.73" y1="325.64" x2="498.07" y2="325.64" gradientTransform="translate(0 502) scale(1 -1)" gradientUnits="userSpaceOnUse">
      <stop offset="0" stop-color="#edd129"/>
      <stop offset="0" stop-color="#edd129"/>
      <stop offset=".1" stop-color="#f0dc51"/>
      <stop offset=".2" stop-color="#f4e671"/>
      <stop offset=".3" stop-color="#f6ec87"/>
      <stop offset=".39" stop-color="#f7f095"/>
      <stop offset=".47" stop-color="#f8f29a"/>
      <stop offset=".55" stop-color="#f6ee90"/>
      <stop offset=".69" stop-color="#f3e675"/>
      <stop offset=".86" stop-color="#edd94b"/>
      <stop offset="1" stop-color="#e9cd24"/>
    </linearGradient>
  </defs>
  <path class="cls-10" d="M87.09,260.47c1.52-.13,3.05-.26,4.6-.37-.74.64-1.45,1.27-2.15,1.91l-2.45-1.55h0Z"/>
  <path class="cls-1" d="M203.13,273.07l-15.36,9.78-11.33-7.59c2.22-1.34,4.47-2.66,6.66-4.03.94-.57,1.85-1.18,2.79-1.78,5.75,1.18,11.52,2.38,17.24,3.63h0Z"/>
  <path class="cls-5" d="M261.93,286.27c-3.33,4.16-6.72,8.36-9.91,12.33-.98-.17-1.94-.34-2.92-.51-1.61-.47-3.23-.98-4.87-1.41-13.3-3.36-26.64-6.48-40.01-9.5l12.77-11.05c14.98,3.36,29.97,6.82,44.95,10.15Z"/>
  <path class="cls-3" d="M429.13,239.51c-2.22-1.94-4.4-3.97-6.76-5.78-1.18-.94-2.35-1.85-3.53-2.79h0c-18.85-14.89-37.73-29.7-56.61-44.55-.7-.57-1.78-.77-2.32-1.41-.74-.88-1.11-.44-1.65.03-3.93,3.39-7.87,6.79-11.79,10.15-.26.23-.57.47-.77.64-1.08-.84-2.15-1.55-3.02-2.45-10.07-10.92-20.16-21.87-30.23-32.83-22.31-24.29-51.88-55.97-52.55-57.15-.41.23-14.48,12.13-36.01,30.04-1.75,1.48-2.69,2.92-2.25,5.17.17.94-.2,1.31-1.14,1.55-7.87,2.09-15.72,4.2-23.59,6.32-.98.26-2.05.37-3.02.64-.44.13-.91.44-1.14.8-.44.6-.74,1.31-1.04,2.01-.26.6-.57,1.21-.74,1.85-.37,1.14-.64,2.25-1.01,3.56-.31-.26-.41-.37-.51-.51-.84-1.01-1.68-2.01-2.52-2.99-.67-.77-1.04-.74-1.78-.07-1.04.94-2.05,1.91-3.15,2.76-5.44,4.26-10.92,8.47-16.36,12.73-.57.44-.91.47-1.37-.13-1.88-2.35-3.87-4.67-5.78-6.99-3.46-4.13-6.86-8.29-10.38-12.39-1.37-1.61-4.06-.51-4.34-.2l-103.88,83.35,29.06,18.21,29.02-17.77-20.66,18.14-3.23,2.86,6.15,3.87c6.09-.98,12.19-1.61,18.28-2.01,2.09-1.85,4.16-3.69,6.25-5.55.77-.67,1.52-1.45,2.22-2.19v-.34c-.26.07-.51.1-.98.2-.07-.34-.17-.67-.23-.98-.57-2.29-1.11-4.6-1.71-6.86-.23-.84.07-1.24.7-1.71,10.85-7.72,21.66-15.46,32.49-23.18,1.31-.94,2.66-1.88,4-2.86,15.85,12.86,31.62,25.7,47.57,38.67-.13-.31-.17-.51-.31-.64-.74-.8-1.52-1.61-2.25-2.42-11.52-12.26-23.05-24.49-34.61-36.68-1.14-1.21-5.11-16.93-6.55-22.58-.13-.57-.03-.88.41-1.18,5.84-4.16,11.66-8.33,17.43-12.57.74-.54,1.11-.44,1.68.23,6.15,7.46,12.36,14.89,18.51,22.34.44.54.7,1.34.77,2.09.17,3.12.31,6.25.34,9.37,0,1.94.7,3.46,2.09,4.9,10.92,11.49,21.74,23.05,32.62,34.61.31.31.57.64.91,1.01-.23.2-.41.34-.6.44-5.81,3.69-11.62,7.39-17.43,11.08-2.86,1.81-5.75,3.66-8.6,5.47,5.65,1.27,11.29,2.55,16.93,3.83l7.9-5.04,50.73-32.29-40.52,35.11-5.71,4.98c6.22,1.34,12.39,2.63,18.64,3.77,8.8,1.61,17.68,2.92,26.54,4.06.54-.67,1.08-1.31,1.58-1.94,4.47-5.47,8.6-10.48,11.82-14.11.2-.2.37-.44.6-.6.84-.6.91-.98.34-1.85-1.41-2.19-2.82-4.37-4.2-6.58,1.27-1.08,2.55-2.05,3.72-3.09.44-.41.77-.47,1.31-.23,20.57,8.5,41.09,16.93,61.65,25.4.6.26,1.31.34,1.94.47,0-.07.1-.17.13-.23-.2-.2-.41-.41-.64-.57-.8-.54-1.68-1.08-2.48-1.58-17.27-10.99-34.57-22-51.81-33.02-2.76-1.75-5.41-3.63-8.1-5.47-.37-.23-.67-.54-1.01-.8,7.02-9.14,13.97-18.21,20.93-27.34.2.23.37.41.57.6,8.77,10.58,17.57,21.17,26.27,31.78,2.09,2.52,3.97,5.21,5.91,7.79.17.2.47.26.77.44-3.3-7.19-6.55-14.22-9.81-21.27.07-.03.17-.1.23-.17,8.83,9.04,17.68,18.07,26.54,27.11.1-.1.2-.2.31-.26-9.04-12.53-19.25-24.16-28.79-36.29,2.22-1.21,4.34-2.35,6.38-3.56.77-.47,1.27-.37,1.91.23,4.67,4.23,9.34,8.44,14.01,12.63,11.66,10.48,23.35,20.99,35.01,31.52.44.41.94.77,1.48,1.04.74.37,1.52.31,2.12-.34.6-.64.7-1.45.2-2.19-.37-.57-.84-1.04-1.31-1.48-10.41-9.37-20.83-18.74-31.24-28.12-1.45-1.31-2.89-2.58-4.44-4,1.41-1.18,2.69-2.35,4.06-3.43.54-.41,1.21-.64,1.85-.94.26-.13.54-.34.8-.51-.23-.23-.41-.51-.67-.7-1.34-.98-2.69-1.88-4.03-2.86-1.45-1.04-2.82-2.15-4.3-3.2-.74-.54-.8-.7,0-1.14,2.12-1.11,4.3-2.09,6.38-3.23.98-.54,1.71-.47,2.66.13,17,10.45,34,20.9,51.03,31.28.64.41,1.52.44,2.28.64,0-.1.1-.23.17-.34-.23-.23-.44-.47-.7-.67-17.2-13.01-35.01-25.23-51.81-38.77-.2-.2-.41-.6-.37-.88.34-1.98.74-3.97,1.11-5.91.26-1.31.54-2.63.8-4.03.23.17.34.23.44.34,20.36,16.16,40.68,32.32,61.05,48.48.64.54,1.31,1.04,1.94,1.55,1.52,1.18,2.99,2.38,4.5,3.53,1.08.8,2.25.7,2.92-.13s.47-1.98-.54-2.89h-.13l.04.04ZM144.04,178.36c.31-7.72.6-15.15.91-22.88,3.3,4.13,6.42,8.03,9.65,12.06-3.49,3.59-6.92,7.12-10.55,10.85h0v-.03h0ZM259.81,111.67c.07-.47.1-.94.23-1.41.1-.34.37-.88.54-.88.41,0,.94.2,1.21.51,1.45,1.55,2.82,3.12,4.2,4.7,9.01,10.15,17.97,20.29,26.98,30.44.23.26.54.47.7.77.13.2.2.6.07.74-.17.2-.54.2-.8.23-.13,0-.26-.13-.41-.2-11.22-7.26-22.44-14.48-33.66-21.74-.37-.23-.67-.64-.84-.8.64-4.34,1.21-8.36,1.81-12.39h-.03v.03h0ZM341.69,199.66c-4.34,3.69-8.67,7.39-13.04,11.08-.7.6-1.52,1.11-2.25,1.65-.51.37-.84.31-1.27-.2-4.57-5.41-9.17-10.75-13.78-16.16-.34-.37-.7-.74-.94-1.01-9.94,7.29-19.82,14.51-30.3,21.03.17-1.61.31-3.12.41-4.7,0-.41-.17-.8-.26-1.21-.41.13-.84.2-1.21.41-18.35,11.29-36.68,22.61-55,33.97-.74.44-1.11.34-1.68-.23-8.44-8.83-16.86-17.6-25.33-26.41-.57-.57-.54-.98-.1-1.61,5.08-7.29,10.12-14.61,15.12-21.94.26-.37.37-.91.6-1.48.44.34,1.04.7,1.55,1.14,11.86,10.48,23.72,20.96,35.58,31.44.26.23.6.44.94.67.1-.07.2-.17.26-.23-.2-.31-.37-.64-.57-.94-9.61-11.62-19.25-23.25-28.89-34.84-.37-.47-.57-.91-.41-1.55,1.08-3.56,2.09-7.15,3.15-10.75.31-1.04.67-2.05,1.08-3.02.1-.23.26-.54.47-.64,2.63-1.21,5.27-2.35,7.9-3.59,1.01-.51,1.71-.41,2.63.31,3.87,3.09,7.76,6.09,11.69,9.07.23.2.57.23.91.34-.07-.34-.03-.67-.2-.94-2.42-4.74-4.87-9.44-7.26-14.18-.2-.37-.23-.94-.07-1.31,3.3-6.66,6.61-13.27,9.98-19.88.07-.1.17-.2.31-.41,9.5,8.13,19.02,16.23,28.52,24.36,0,0,.2-.1.34-.13-10.18-12.39-20.29-24.76-30.54-37.3.8-.37,1.61-.7,2.42-1.01,1.11-.44,2.22-.77,3.3-1.27.6-.26,1.04-.23,1.58.13,17.24,11.52,34.51,23.05,51.74,34.61.7.47,1.37,1.04,1.94,1.68,10.32,11.18,20.6,22.41,30.87,33.63.17.2.34.37.57.67-.31.26-.51.51-.74.7v.07h0v-.03Z"/>
  <path class="cls-7" d="M160.6,277.87c.64.34,1.37.51,2.05.41l-2.05-.41Z"/>
  <path class="cls-8" d="M281.65,280.05c-.94.57-1.78.67-2.58.57-3.8-.44-7.62-.91-11.43-1.37-8.87-1.14-17.74-2.45-26.54-4.06-6.25-1.14-12.44-2.42-18.64-3.77-4.13-.91-8.26-1.81-12.39-2.76-5.65-1.27-11.29-2.55-16.93-3.83-11.96-2.66-23.95-5.21-36.08-7.19-19.52-3.12-39.08-4.77-58.62-3.53-6.09.37-12.16,1.04-18.28,2.01h-.2c-9.78,1.58-19.49,3.43-28.76,7.12-2.96-.07-5.44,2.69-8.6,1.52,10.85-6.89,22.31-12.19,34.64-15.36,2.82-.74,5.71-1.34,8.63-1.85,6.58-1.14,13.24-1.37,19.79-2.25.2,0,.41-.03.6-.07,8.73-.44,17.4.77,26.1.74,1.18.2,2.38.44,3.56.57,22.38,2.05,44.08,7.29,65.75,12.83,1.71.44,3.46.88,5.21,1.31,3.69.94,7.36,1.91,11.02,2.92,3.39.94,6.79,1.88,10.22,2.82,13.64,3.8,27.25,7.62,41.05,10.82.7.17,1.41.34,2.12.51,3.43.77,6.86,1.52,10.32,2.29h.07-.01Z"/>
  <path class="cls-9" d="M263.2,313.94c4.57,2.32,8.63,4.37,12.67,6.42,16.6,6.45,33.53,11.69,51.24,14.04,24.42,3.26,48.85,3.69,72.94-2.52,17.47-4.5,33.4-12,45.66-25.81.57-.64,1.27-1.11,1.88-1.68,1.04-1.68,2.09-3.39,3.53-5.78-3.26,1.08-5.08,3.49-7.36,4.94-.57.37-1.21.7-1.88.91h0c-9.74,7.43-20.73,12.33-32.35,15.75-27.31,8.03-55.16,8.87-83.25,5.71-20.06-2.25-39.85-6.04-59.24-11.93-1.01-.31-2.12-.98-3.9-.07h.07l-.02.02Z"/>
  <path class="cls-8" d="M394.66,287.38c2.09,1.04,4.03,0,5.91-.54,5.34-1.48,10.28-3.97,15.28-6.32,10.89-7.39,19.92-16.36,24.6-29.02,5.78-15.69.1-29.87-15.05-37.06-5.75-2.72-11.79-4.57-17.4-4.98,2.58,3.83,5.31,7.9,8.06,11.93,6.51,9.55,9.71,19.96,7.26,31.47-2.01,9.61-7.23,17.5-14.38,24.16-4.34,4.03-8.73,7.93-14.28,10.32h0v.03h0Z"/>
  <path class="cls-6" d="M459.2,258.75c-1.55,8.93-6.04,16.39-11.59,23.35-5.98,5.91-11.76,12.1-18.95,16.67-1.31.84-2.69,1.55-4.06,2.32h-.07l-1.14.91c-.74.51-1.48.94-2.28,1.31-.57.23-1.11.44-1.71.6-11.43,6.22-23.78,9.34-36.58,10.85-28.69,3.43-56.87-.57-84.9-6.15-14.92-2.99-29.73-6.51-44.58-9.78-.44-.1-.88-.2-1.31-.26-.98-.17-1.94-.34-2.92-.51-1.61-.47-3.23-.98-4.87-1.41-13.3-3.36-26.64-6.48-40.01-9.5-9.94-2.25-19.85-4.4-29.84-6.55-3.9-.77-7.83-1.55-11.72-2.35h0l-2.05-.41h-.07c-1.52.07-2.99,0-4.37-.7-1.21-.1-2.42-.13-3.59-.34-22.24-3.46-44.55-5.58-67.06-4.06-10.61.7-21.17,1.94-31.41,4.94-2.76.37-5.44,1.08-7.96,2.25-11.12,3.3-21.4,8.5-31.38,14.35,5.68-7.39,13.14-12.67,20.57-17.97,5.84-2.86,11.72-5.71,17.57-8.57,11.22-3.9,22.68-6.22,34.27-7.36,1.52-.13,3.05-.26,4.6-.37,8.16-.57,16.42-.6,24.73-.23,18.58.84,37.02,3.33,55.3,6.79,4.74.91,9.44,1.81,14.18,2.79,5.75,1.18,11.52,2.38,17.24,3.63,4.6,1.01,9.24,2.05,13.84,3.05,14.98,3.36,29.97,6.82,44.95,10.15l1.45.34c12.83,2.82,25.74,5.27,38.6,7.93,1.31-.1,2.55,0,3.72.6,1.41.23,2.82.54,4.23.7,18.07,1.91,36.22,3.15,54.39,2.25,12.03-.64,23.95-2.09,35.51-5.75,7.49-1.78,14.61-4.4,21.1-8.63,8.97-4.74,16.03-11.49,20.93-20.36,7.46-13.47,7.62-27.85,4.77-42.5-.88-4.44-2.01-8.83-3.02-13.37,1.45,0,1.85,1.04,2.63,1.55.57,1.71,1.45,3.23,2.96,4.26,1.98,4,4.1,7.93,5.88,11.96,4.74,10.75,6.18,21.91,4.16,33.5l-.1.1h-.02Z"/>
  <path class="cls-4" d="M144.91,155.47c3.3,4.13,6.42,8.03,9.65,12.06-3.49,3.59-6.92,7.12-10.55,10.85.31-7.72.6-15.15.91-22.88h0v-.03h0Z"/>
  <path class="cls-4" d="M224.06,244.55c-.74.44-1.11.34-1.68-.23-8.44-8.83-16.86-17.6-25.33-26.41-.57-.57-.54-.98-.1-1.61,5.08-7.29,10.12-14.61,15.12-21.94.26-.37.37-.91.6-1.48.44.34,1.04.7,1.55,1.14,11.86,10.48,23.72,20.96,35.58,31.44.26.23.6.44.94.67.1-.07.2-.17.26-.23-.2-.31-.37-.64-.57-.94-9.61-11.62-19.25-23.25-28.89-34.84-.37-.47-.57-.91-.41-1.55,1.08-3.56,2.09-7.15,3.15-10.75.31-1.04.67-2.05,1.08-3.02.1-.23.26-.54.47-.64,2.63-1.21,5.27-2.35,7.9-3.59,1.01-.51,1.71-.41,2.63.31,3.87,3.09,7.76,6.09,11.69,9.07.23.2.57.23.91.34-.07-.34-.03-.67-.2-.94-2.42-4.74-4.87-9.44-7.26-14.18-.2-.37-.23-.94-.07-1.31,3.3-6.66,6.61-13.27,9.98-19.88.07-.1.17-.2.31-.41,9.5,8.13,19.02,16.23,28.52,24.36,0,0,.2-.1.34-.13-10.18-12.39-20.29-24.76-30.54-37.3.8-.37,1.61-.7,2.42-1.01,1.11-.44,2.22-.77,3.3-1.27.6-.26,1.04-.23,1.58.13,17.24,11.52,34.51,23.05,51.74,34.61.7.47,1.37,1.04,1.94,1.68,10.32,11.18,20.6,22.41,30.87,33.63.17.2.34.37.57.67-.31.26-.51.51-.74.7-4.34,3.69-8.67,7.39-13.04,11.08-.7.6-1.52,1.11-2.25,1.65-.51.37-.84.31-1.27-.2-4.57-5.41-9.17-10.75-13.78-16.16-.34-.37-.7-.74-.94-1.01-9.94,7.29-19.82,14.51-30.3,21.03.17-1.61.31-3.12.41-4.7,0-.41-.17-.8-.26-1.21-.41.13-.84.2-1.21.41-18.35,11.29-36.68,22.61-55,33.97v.07h0v-.03Z"/>
  <path class="cls-4" d="M260.58,109.42c.41,0,.94.2,1.21.51,1.45,1.55,2.82,3.12,4.2,4.7,9.01,10.15,17.97,20.29,26.98,30.44.23.26.54.47.7.77.13.2.2.6.07.74-.17.2-.54.2-.8.23-.13,0-.26-.13-.41-.2-11.22-7.26-22.44-14.48-33.66-21.74-.37-.23-.67-.64-.84-.8.64-4.34,1.21-8.36,1.81-12.39.07-.47.1-.94.23-1.41.1-.34.37-.88.54-.88h0l-.03.03h0Z"/>
  <path class="cls-2" d="M250.01,6.32C115.42,6.32,6.31,115.43,6.31,250.02c0,34.26,7.08,66.83,19.85,96.39l43.02-18.92c-10.27-23.74-15.91-49.99-15.91-77.48,0-108.67,88.06-196.8,196.72-196.8s196.73,88.13,196.73,196.8c0,26.62-5.32,52.05-14.91,75.22l43.66,17.1c11.71-28.5,18.16-59.62,18.16-92.32,0-134.6-109.11-243.71-243.65-243.71v.02Z"/>
  <g>
    <path class="cls-11" d="M61.52,348.22v5.23h2.56v3.4h-2.56v1.98c1.01,1.19,2.01,2.29,3.22,3.37v-1.83h6.51v-3.89h-2.97c-.46.95-.79,1.92-1.31,2.91-.92-.52-1.95-.92-3.19-1.25,1.59-3.28,2.23-5.57,2.78-8.13l3.46.76c-.15.67-.37,1.53-.64,2.35h1.86v-4.89h3.73v4.89h5.14v3.37h-5.14v3.89h6.51v3.28h-5.2c1.07,1.56,3.25,4.25,6.76,6.36-1.13.85-1.86,1.83-2.5,3.03-2.38-1.89-3.86-3.43-5.57-5.69v8.25h-3.73v-8.31c-1.86,2.32-3.8,4.22-6.51,5.93-.67-.95-1.47-1.89-2.47-2.84,2.5-1.5,4.99-3.46,7.61-6.73h-5.14v-.34c-.52.73-1.04,1.43-1.43,2.17-.58-.58-1.16-1.19-1.77-1.89v12.08h-3.34v-10.55c-1.5,2.66-2.01,3.55-3.03,5.05-.34-1.47-.89-2.75-1.59-4.1,1.13-1.59,3.19-4.71,4.47-9.21h-3.58v-3.4h3.73v-5.23h3.34v-.02Z"/>
    <path class="cls-11" d="M99.42,360.15v3.37h-4.19v6.36c1.77-.27,3.67-.61,5.47-.95v3.52c-4.28.7-10.74,1.86-14.44,2.56l-.82-3.89c1.98-.21,3.98-.49,5.9-.76v-6.85h-4.53v-3.37h12.61ZM108.65,353.15h3.46v3.52h-7.86c.06,2.41.43,6.48,1.37,9.61.55,1.86,2.05,5.23,3.03,5.23.52,0,.73-1.56.95-2.91,1.1.79,2.23,1.43,3.46,1.86-.67,3.15-1.86,5.51-3.64,5.51-.31,0-1.8-.09-3.46-1.68-4.74-4.38-5.29-13.73-5.51-17.61h-14.84v-3.52h14.75l.06-5.02h3.77c-.06,2.53-.09,4.07-.03,5.05l3.52-.03c-1.04-.95-2.17-1.83-3.28-2.75l2.14-2.29c1.37.95,2.78,2.14,3.92,3.19l-1.8,1.86h-.01Z"/>
    <path class="cls-11" d="M131.64,348.8l-.46.46c2.23,2.59,5.44,6.27,12.84,9.24-.95.89-1.86,1.95-2.38,3.22-1.59-.76-3.31-1.65-5.14-2.94v1.95h-15.23v-1.8c-1.53,1.16-3.06,2.17-4.47,2.84-.46-1.1-1.13-2.23-1.95-3.06,5.29-2.97,7.89-5.66,9.88-7.76.73-.73,1.59-1.68,2.91-3.4l4.01,1.25h-.01ZM134.51,366.48c2.2,1.95,3.09,2.97,3.95,3.98.85.98,1.62,1.92,2.72,3.49l-3.03,2.17c-.55-.85-1.16-1.71-1.83-2.53-5.84,1.07-9.12,1.47-18.16,2.44l-.89-3.83,3.95-.18c.73-1.8,1.59-3.89,2.23-5.54h-7v-3.25h25.81v3.25h-7.73ZM134.6,357.45c-2.84-2.29-4.1-3.58-5.75-5.69-2.84,3.06-3.77,4.04-5.78,5.69h11.53ZM134.36,366.48h-6.7c-.79,1.65-1.86,3.83-2.53,5.32,2.94-.21,6.21-.55,8.93-.95-.7-.76-1.47-1.59-2.26-2.38l2.56-1.98h-.01Z"/>
    <path class="cls-11" d="M153.73,348.1v4.5h2.5l.37-.15,2.14,2.11c-1.65,2.78-2.11,3.55-4.04,5.99,1.07,1.4,2.47,2.72,3.89,3.92-.79.92-1.59,1.92-2.35,2.87-.85-.82-1.83-1.83-2.56-2.78v11.13h-3.61v-10.31c-.85.82-1.83,1.53-2.78,2.2-.4-1.22-.98-2.47-1.71-3.55,2.69-1.74,5.17-3.73,8.1-8.01h-7.09v-3.43h3.52v-4.5h3.64-.01ZM167.16,348.13v9.12h5.87v3.58h-5.87v10.43h6.82v3.64h-18.35v-3.64h7.58v-10.43h-5.51v-3.58h5.51v-9.12h3.95Z"/>
  </g>
  <g>
    <path class="cls-11" d="M184.38,350.66h7.75c5.46,0,9.51,1.89,9.51,7.59s-4.06,7.98-9.37,7.98h-3.54v9.06h-4.37v-24.63h.01ZM191.92,362.74c3.67,0,5.42-1.46,5.42-4.49s-1.91-4.1-5.58-4.1h-3.03v8.59h3.19Z"/>
    <path class="cls-11" d="M203.89,366.05c0-6.16,4.18-9.72,8.8-9.72s8.79,3.56,8.79,9.72-4.18,9.69-8.79,9.69-8.8-3.56-8.8-9.69ZM217.03,366.05c0-3.7-1.63-6.18-4.34-6.18s-4.34,2.47-4.34,6.18,1.63,6.15,4.34,6.15,4.34-2.44,4.34-6.15Z"/>
    <path class="cls-11" d="M225.59,348.69h4.24v16.62h.12l6.85-8.51h4.74l-6.34,7.53,6.99,10.96h-4.71l-4.76-8.03-2.89,3.33v4.7h-4.24v-26.6h0Z"/>
    <path class="cls-11" d="M245.26,348.69h4.34v6.88l-.18,3.57c1.55-1.46,3.39-2.8,5.92-2.8,3.96,0,5.7,2.69,5.7,7.35v11.6h-4.34v-11.04c0-3.04-.88-4.18-2.87-4.18-1.63,0-2.7.79-4.21,2.3v12.92h-4.34v-26.6h-.02Z"/>
    <path class="cls-11" d="M265.3,370.31c0-3.96,3.29-6.02,10.88-6.84-.06-1.98-.85-3.64-3.36-3.64-1.84,0-3.57.82-5.2,1.82l-1.6-2.89c2.04-1.28,4.65-2.42,7.59-2.42,4.62,0,6.9,2.85,6.9,8v10.95h-3.55l-.33-2.05h-.12c-1.66,1.41-3.55,2.5-5.74,2.5-3.24,0-5.46-2.2-5.46-5.42h-.01ZM276.18,370.33v-4.16c-5.02.63-6.69,1.94-6.69,3.81,0,1.64,1.12,2.35,2.67,2.35s2.66-.74,4.02-2h0Z"/>
    <path class="cls-11" d="M285.75,356.79h3.56l.33,3.3h.12c1.32-2.41,3.28-3.75,5.26-3.75.95,0,1.54.12,2.1.38l-.75,3.77c-.64-.18-1.13-.31-1.89-.31-1.48,0-3.26,1.01-4.37,3.83v11.29h-4.34v-18.5h-.02Z"/>
    <path class="cls-11" d="M297.84,370.31c0-3.96,3.29-6.02,10.88-6.84-.06-1.98-.85-3.64-3.36-3.64-1.84,0-3.57.82-5.2,1.82l-1.6-2.89c2.04-1.28,4.65-2.42,7.59-2.42,4.62,0,6.9,2.85,6.9,8v10.95h-3.55l-.33-2.05h-.12c-1.66,1.41-3.55,2.5-5.74,2.5-3.24,0-5.46-2.2-5.46-5.42h-.01ZM308.72,370.33v-4.16c-5.02.63-6.69,1.94-6.69,3.81,0,1.64,1.12,2.35,2.67,2.35s2.66-.74,4.02-2h0Z"/>
    <path class="cls-11" d="M331.16,354.34h-7.11v-3.67h18.58v3.67h-7.1v20.95h-4.37v-20.95Z"/>
    <path class="cls-11" d="M344.74,356.79h3.56l.33,3.3h.12c1.32-2.41,3.28-3.75,5.26-3.75.95,0,1.54.12,2.1.38l-.75,3.77c-.64-.18-1.13-.31-1.89-.31-1.48,0-3.26,1.01-4.37,3.83v11.29h-4.34v-18.5h-.02Z"/>
    <path class="cls-11" d="M356.83,370.31c0-3.96,3.29-6.02,10.88-6.84-.06-1.98-.85-3.64-3.36-3.64-1.84,0-3.57.82-5.2,1.82l-1.6-2.89c2.04-1.28,4.65-2.42,7.59-2.42,4.62,0,6.9,2.85,6.9,8v10.95h-3.55l-.33-2.05h-.12c-1.66,1.41-3.55,2.5-5.74,2.5-3.24,0-5.46-2.2-5.46-5.42h-.01ZM367.71,370.33v-4.16c-5.02.63-6.69,1.94-6.69,3.81,0,1.64,1.12,2.35,2.67,2.35s2.66-.74,4.02-2h0Z"/>
    <path class="cls-11" d="M376.15,366.05c0-6.02,3.78-9.72,7.84-9.72,2.1,0,3.42.78,4.85,2.04l-.16-2.98v-6.71h4.34v26.6h-3.55l-.34-2h-.12c-1.37,1.37-3.27,2.45-5.26,2.45-4.61,0-7.59-3.58-7.59-9.69h0ZM388.67,370.07v-8.62c-1.26-1.13-2.51-1.54-3.77-1.54-2.35,0-4.29,2.23-4.29,6.09s1.54,6.15,4.2,6.15c1.43,0,2.64-.63,3.86-2.08Z"/>
    <path class="cls-11" d="M398.04,351.09c0-1.46,1.14-2.45,2.68-2.45s2.69,1,2.69,2.45-1.14,2.45-2.69,2.45-2.68-1.03-2.68-2.45ZM398.54,356.79h4.34v18.5h-4.34v-18.5Z"/>
    <path class="cls-11" d="M408.42,356.79h3.56l.33,2.5h.12c1.66-1.61,3.54-2.95,6.08-2.95,3.96,0,5.7,2.69,5.7,7.35v11.6h-4.34v-11.04c0-3.04-.88-4.18-2.87-4.18-1.63,0-2.7.79-4.21,2.3v12.92h-4.34v-18.5h-.03Z"/>
    <path class="cls-11" d="M428.27,378.65c0-1.56.97-2.92,2.67-3.95v-.15c-.95-.62-1.67-1.6-1.67-3.09s.98-2.7,2.05-3.45v-.15c-1.26-.94-2.44-2.7-2.44-4.88,0-4.24,3.43-6.64,7.31-6.64,1.03,0,1.98.18,2.75.45h6.61v3.23h-3.38c.6.69,1.06,1.84,1.06,3.1,0,4.11-3.11,6.31-7.03,6.31-.78,0-1.67-.16-2.5-.49-.56.48-.91.95-.91,1.77,0,1.04.75,1.67,3,1.67h3.29c4.43,0,6.77,1.37,6.77,4.57,0,3.64-3.83,6.52-9.87,6.52-4.42,0-7.69-1.58-7.69-4.82v.02ZM441.64,377.65c0-1.43-1.14-1.85-3.26-1.85h-2.53c-1,0-1.79-.07-2.5-.25-1,.75-1.43,1.58-1.43,2.44,0,1.69,1.81,2.67,4.71,2.67s5.02-1.4,5.02-3h0ZM439.38,362.98c0-2.32-1.4-3.64-3.21-3.64s-3.21,1.31-3.21,3.64,1.43,3.72,3.21,3.72,3.21-1.37,3.21-3.72Z"/>
  </g>
</svg>