<?xml version="1.0" encoding="UTF-8"?>
<svg id="Layer_1" data-name="Layer 1" xmlns="http://www.w3.org/2000/svg" xmlns:xlink="http://www.w3.org/1999/xlink" viewBox="0 0 500 500">
  <defs>
    <style>
      .cls-1 {
        fill: url(#linear-gradient-15);
      }

      .cls-2 {
        fill: url(#linear-gradient-13);
      }

      .cls-3 {
        fill: url(#linear-gradient-2);
      }

      .cls-4 {
        fill: url(#linear-gradient-25);
      }

      .cls-5 {
        fill: url(#linear-gradient-10);
      }

      .cls-6 {
        fill: url(#linear-gradient-12);
      }

      .cls-7 {
        fill: #3d2d0e;
      }

      .cls-8 {
        fill: url(#linear-gradient-26);
      }

      .cls-9 {
        fill: url(#linear-gradient-4);
      }

      .cls-10 {
        fill: url(#linear-gradient-3);
      }

      .cls-11 {
        fill: url(#linear-gradient-5);
      }

      .cls-12 {
        fill: url(#linear-gradient-22);
      }

      .cls-13 {
        fill: url(#linear-gradient-24);
      }

      .cls-14 {
        fill: url(#linear-gradient-8);
      }

      .cls-15 {
        fill: url(#linear-gradient-14);
      }

      .cls-16 {
        fill: url(#linear-gradient-20);
      }

      .cls-17 {
        fill: url(#linear-gradient-17);
      }

      .cls-18 {
        fill: url(#linear-gradient-7);
      }

      .cls-19 {
        fill: url(#linear-gradient-9);
      }

      .cls-20 {
        fill: url(#linear-gradient-11);
      }

      .cls-21 {
        fill: url(#linear-gradient-19);
      }

      .cls-22 {
        fill: url(#linear-gradient-6);
      }

      .cls-23 {
        fill: url(#linear-gradient-21);
      }

      .cls-24 {
        fill: url(#linear-gradient-16);
      }

      .cls-25 {
        fill: url(#linear-gradient);
      }

      .cls-26 {
        fill: url(#linear-gradient-23);
      }

      .cls-27 {
        fill: url(#linear-gradient-18);
      }
    </style>
    <linearGradient id="linear-gradient" x1="185.68" y1="425.73" x2="237.08" y2="425.73" gradientTransform="translate(0 502) scale(1 -1)" gradientUnits="userSpaceOnUse">
      <stop offset="0" stop-color="#e09d18"/>
      <stop offset="0" stop-color="#c4892e"/>
      <stop offset=".34" stop-color="#d69e36"/>
      <stop offset=".6" stop-color="#fad972"/>
      <stop offset=".73" stop-color="#e8bc57"/>
      <stop offset=".9" stop-color="#d39935"/>
      <stop offset="1" stop-color="#cb8c29"/>
    </linearGradient>
    <linearGradient id="linear-gradient-2" x1="250.79" y1="423.11" x2="250.95" y2="423.11" xlink:href="#linear-gradient"/>
    <linearGradient id="linear-gradient-3" x1="175.4" y1="398" x2="247.47" y2="398" xlink:href="#linear-gradient"/>
    <linearGradient id="linear-gradient-4" x1="154.67" y1="360.9" x2="267.92" y2="360.9" xlink:href="#linear-gradient"/>
    <linearGradient id="linear-gradient-5" x1="131.86" y1="317.59" x2="290.67" y2="317.59" xlink:href="#linear-gradient"/>
    <linearGradient id="linear-gradient-6" x1="109.45" y1="270.23" x2="315.44" y2="270.23" xlink:href="#linear-gradient"/>
    <linearGradient id="linear-gradient-7" x1="138.27" y1="235.29" x2="284.27" y2="235.29" xlink:href="#linear-gradient"/>
    <linearGradient id="linear-gradient-8" x1="125.91" y1="214.73" x2="296.85" y2="214.73" xlink:href="#linear-gradient"/>
    <linearGradient id="linear-gradient-9" x1="185.68" y1="467.66" x2="235.11" y2="467.66" xlink:href="#linear-gradient"/>
    <linearGradient id="linear-gradient-10" x1="326.48" y1="276.19" x2="407.88" y2="208.94" gradientTransform="translate(0 502) scale(1 -1)" gradientUnits="userSpaceOnUse">
      <stop offset="0" stop-color="#e09d18"/>
      <stop offset="0" stop-color="#c4892e"/>
      <stop offset=".3" stop-color="#fad972"/>
      <stop offset=".33" stop-color="#f5d069"/>
      <stop offset=".45" stop-color="#e3ae46"/>
      <stop offset=".51" stop-color="#dca239"/>
      <stop offset=".78" stop-color="#fad972"/>
      <stop offset=".85" stop-color="#e8bc57"/>
      <stop offset=".95" stop-color="#d39935"/>
      <stop offset="1" stop-color="#cb8c29"/>
    </linearGradient>
    <linearGradient id="linear-gradient-11" x1="64.59" y1="133.87" x2="301.76" y2="21.18" xlink:href="#linear-gradient-10"/>
    <linearGradient id="linear-gradient-12" x1="77.82" y1="180.89" x2="333.93" y2="180.89" xlink:href="#linear-gradient"/>
    <linearGradient id="linear-gradient-13" x1="140.71" y1="155.29" x2="180.89" y2="113.09" xlink:href="#linear-gradient"/>
    <linearGradient id="linear-gradient-14" x1="201.91" y1="115.66" x2="232.19" y2="76.62" xlink:href="#linear-gradient"/>
    <linearGradient id="linear-gradient-15" x1="233.97" y1="113.01" x2="264.03" y2="71.55" gradientTransform="translate(0 502) scale(1 -1)" gradientUnits="userSpaceOnUse">
      <stop offset="0" stop-color="#e09d18"/>
      <stop offset="0" stop-color="#c4892e"/>
      <stop offset=".42" stop-color="#d69e36"/>
      <stop offset=".8" stop-color="#fad972"/>
      <stop offset=".86" stop-color="#e8bc57"/>
      <stop offset=".95" stop-color="#d39935"/>
      <stop offset="1" stop-color="#cb8c29"/>
    </linearGradient>
    <linearGradient id="linear-gradient-16" x1="277.95" y1="91.37" x2="319.64" y2="59.35" xlink:href="#linear-gradient"/>
    <linearGradient id="linear-gradient-17" x1="304.2" y1="100.38" x2="347.12" y2="71.28" xlink:href="#linear-gradient"/>
    <linearGradient id="linear-gradient-18" x1="385.95" y1="74.32" x2="342.07" y2="101.96" gradientTransform="translate(0 502) scale(1 -1)" gradientUnits="userSpaceOnUse">
      <stop offset="0" stop-color="#e09d18"/>
      <stop offset="0" stop-color="#c4892e"/>
      <stop offset=".25" stop-color="#d69e36"/>
      <stop offset=".33" stop-color="#dda941"/>
      <stop offset=".69" stop-color="#fad972"/>
      <stop offset=".76" stop-color="#f4cf68"/>
      <stop offset=".87" stop-color="#e3b44f"/>
      <stop offset="1" stop-color="#cb8c29"/>
    </linearGradient>
    <linearGradient id="linear-gradient-19" x1="343.48" y1="115.3" x2="397.01" y2="115.3" xlink:href="#linear-gradient"/>
    <linearGradient id="linear-gradient-20" x1="323.53" y1="143.41" x2="371.4" y2="143.41" xlink:href="#linear-gradient"/>
    <linearGradient id="linear-gradient-21" x1="288.65" y1="119.96" x2="339.88" y2="119.96" xlink:href="#linear-gradient"/>
    <linearGradient id="linear-gradient-22" x1="271.85" y1="141.79" x2="319.55" y2="141.79" xlink:href="#linear-gradient"/>
    <linearGradient id="linear-gradient-23" x1="222.31" y1="145.57" x2="269.49" y2="145.57" xlink:href="#linear-gradient"/>
    <linearGradient id="linear-gradient-24" x1="250.8" y1="124.67" x2="291.3" y2="98.04" xlink:href="#linear-gradient"/>
    <linearGradient id="linear-gradient-25" x1="191.86" y1="131.19" x2="243.04" y2="131.19" xlink:href="#linear-gradient"/>
    <linearGradient id="linear-gradient-26" x1="170.23" y1="156.75" x2="223.18" y2="156.75" xlink:href="#linear-gradient"/>
  </defs>
  <rect class="cls-25" x="185.68" y="70.12" width="51.4" height="12.3" rx="1" ry="1"/>
  <rect class="cls-3" x="250.79" y="78.83" width=".17" height=".11"/>
  <rect class="cls-10" x="175.4" y="90.68" width="72.07" height="26.63" rx="2.16" ry="2.16"/>
  <rect class="cls-9" x="154.67" y="123.66" width="113.25" height="34.89" rx="2.83" ry="2.83"/>
  <rect class="cls-11" x="131.86" y="164.89" width="158.81" height="39.04" rx="3.17" ry="3.17"/>
  <rect class="cls-22" x="109.45" y="210.22" width="206" height="43.09" rx="3.49" ry="3.49"/>
  <path class="cls-18" d="M138.27,259.55h146v1.29c0,7.19-5.84,13.03-13.03,13.03h-119.88c-7.19,0-13.03-5.84-13.03-13.03v-1.29h-.06Z"/>
  <path class="cls-14" d="M139,280.11h144.82c7.19,0,13.03,5.84,13.03,13.03v1.29H125.91v-1.29c0-7.19,5.84-13.03,13.03-13.03h.06Z"/>
  <path class="cls-19" d="M235.11,45.85c-1.01,6.97-4.55,12.36-7.81,15.95h-33.76c-3.26-3.65-6.8-8.99-7.81-15.95,0-13.54,9.55-13.54,24.72-38.99,15.17,25.45,24.72,25.45,24.72,38.99h-.06Z"/>
  <path class="cls-5" d="M433.41,230.5s-8.26,51.63-36.12,75.61c-25.73,22.13-50.39,18.09-54.04,17.3,3.2-4.94,7.08-9.72,10.34-14.16,17.19-22.81,48.54-32.58,61.74-58.98-15.39,25.67-47.41,32.86-66.46,54.94-3.48,4.16-6.97,7.92-10.17,11.91-.39-.84-.67-1.69-.73-2.36,0,0-2.53-23.71,16.35-43.99v-26.96s.28-5.28-3.43-9.1c-2.92-3.03-7.75-4.49-14.1-4.38-12.08,1.18-11.74,11.4-11.63,12.58v.45c-.06,1.35.11,5.28,2.13,7.42,1.07,1.12,2.53,1.69,4.61,1.63,2.92,0,5.06-.67,6.12-1.85,1.18-1.24,1.07-3.09,1.07-3.99v-.22c-.06-.79-.11-1.4-.45-1.69-.22-.22-1.24-.84-4.33-.62-1.69.11-3.2-1.12-3.31-2.86-.17-1.69,1.12-3.2,2.87-3.31,3.99-.34,6.91.39,8.88,2.13,2.3,2.02,2.47,4.72,2.53,6.01h0v.17h0c.06,1.4.28,5.39-2.7,8.59-2.3,2.47-5.84,3.76-10.5,3.82-3.71.06-6.97-1.18-9.21-3.54-3.93-4.16-3.93-10.39-3.82-11.85-.39-6.12,2.7-17.64,17.36-18.99h.22c8.37-.17,14.72,1.91,18.93,6.35,5.22,5.51,5.11,12.53,5.06,13.59v20.84s.45-.39.67-.62c26.4-21.29,72.19-33.93,72.19-33.93l-.06.06Z"/>
  <path class="cls-20" d="M297.69,488.97c-2.02.51-3.99.9-6.12,1.29-3.03.56-6.18,1.07-9.44,1.46-28.31,3.65-62.52.28-97.41-10.95-68.93-22.25-117.52-67.92-118.19-107.86v-.45c.28-27.81,25.95-37.3,44.27-40.5-6.68,1.91-12.53,4.33-17.25,7.36h0c-9.27,4.61-15.56,10.9-18.09,18.71-11.35,35.11,57.41,88.76,153.53,119.77,1.29.39,2.58.84,3.88,1.24h.06c5.79,1.4,13.15,2.53,21.23,2.58-7.08-1.91-14.27-4.1-21.52-6.4-95.78-30.95-164.26-84.43-152.91-119.6.22-.67.45-1.35.79-2.02-.22,1.18-4.38,27.47,47.81,55.84,48.14,26.18,122.91,66.29,169.37,78.2.62.17.62,1.07,0,1.24v.11Z"/>
  <path class="cls-6" d="M333.81,321v.84c-1.01,20-37.75,17.53-37.75,17.53h-.62c-.62,0-1.29,0-1.91-.06-.56,0-1.18-.06-1.69-.11-1.74-.11-3.48-.22-5.22-.45-2.08-.22-4.16-.56-6.18-.9-2.25-.34-4.55-.79-6.8-1.18-7.92-1.46-15.84-3.09-23.76-4.72-26.52-5.45-53.03-11.07-79.99-12.36-28.09-1.4-57.36,2.47-82.19,15.06l-.06.06c-.95.56-8.99,5.56-9.72,4.72-.67-.79,1.97-5.34,2.58-6.35.06-.17.11-.22.11-.22.11-.17.22-.34.34-.51,4.49-6.68,8.65-13.59,14.61-19.21,3.71-3.48,7.86-6.35,12.3-8.76,2.08-1.12,4.38-1.69,6.74-1.69h194.37c9.49,0,17.92,4.83,22.86,12.13q3.3,4.87,0,0c1.35,1.91,2.08,3.99,2.08,6.12l-.11.06Z"/>
  <path class="cls-2" d="M181.41,388.41c-4.04,4.04-16.57-1.91-27.98-13.37-10.73-10.73-16.63-22.41-13.99-27.13h0c9.1,8.09,15.9,14.66,21.18,20.11.17.17.34.22.56.22.34,0,.79-.22,1.12-.56.56-.56.67-1.29.34-1.69-4.27-5.62-10.45-12.13-19.32-20.17,5.62-.28,15.5,5.39,24.72,14.61,11.4,11.4,17.36,23.93,13.37,27.98Z"/>
  <path class="cls-15" d="M232.64,427.29c-4.61,3.37-15.22-3.37-23.71-15-6.12-8.43-9.44-17.13-9.04-22.53,7.58,6.85,13.48,12.58,18.14,17.47.17.11.34.17.56.17.34,0,.79-.17,1.12-.56.56-.56.67-1.29.34-1.63-4.1-5.45-10.06-11.8-18.59-19.55.17-.17.39-.39.56-.51,4.61-3.37,15.22,3.37,23.71,15,8.48,11.63,11.57,23.82,6.97,27.19l-.06-.06Z"/>
  <path class="cls-1" d="M265.56,432.51c-4.61,3.37-15.67-3.99-24.72-16.4-7.47-10.28-11.18-20.79-9.66-26.01,7.75,8.09,13.65,14.72,18.2,20.22.17.17.34.22.62.22.34,0,.73-.17,1.07-.45.62-.51.79-1.24.45-1.63-3.76-5.9-9.44-12.86-17.64-21.52,5.11-1.8,15.28,5.34,23.71,16.97,9.04,12.41,12.58,25.22,7.98,28.54v.06Z"/>
  <path class="cls-24" d="M321.12,443.07c-3.37,4.61-16.18.95-28.54-8.15-10.95-8.03-17.92-17.7-16.97-23.03,9.27,5.17,16.46,9.55,22.19,13.37.11.06.22.11.39.11.39,0,.84-.28,1.18-.79.39-.67.39-1.4,0-1.69-5-4.21-11.8-8.82-21.12-14.16,4.94-2.13,15.95,1.63,26.68,9.55,12.36,9.1,19.61,20.22,16.23,24.83l-.06-.06Z"/>
  <path class="cls-17" d="M350.27,431.73c-3.03,4.83-16.07,2.13-29.04-6.07-11.8-7.42-19.55-16.8-18.59-22.08,9.77,6.85,17.47,11.4,23.87,14.27.45.28,1.12,0,1.52-.67.17-.28.28-.67.28-.95,0-.34-.11-.62-.34-.73-6.18-3.71-13.59-8.59-22.75-15.06,4.94-2.25,15.95.79,27.02,7.7,12.98,8.2,21.07,18.76,17.98,23.59h.06Z"/>
  <path class="cls-27" d="M378.36,422.91c-3.03,4.83-16.07,2.13-29.04-6.07-11.46-7.25-19.04-16.29-18.59-21.63,10,5,17.75,9.21,23.87,12.92.11.06.22.06.34.06.39,0,.9-.34,1.18-.84.39-.67.34-1.4-.11-1.69-5.39-4.16-12.75-8.71-23.03-13.93,4.72-2.53,16.07.45,27.36,7.58,12.98,8.2,21.07,18.76,17.98,23.59h.06Z"/>
  <path class="cls-21" d="M396.79,394.82c-1.69,5.45-14.94,6.24-29.6,1.8-13.48-4.1-23.48-11.18-23.76-16.57,10.62,2.58,18.93,5,25.62,7.19h.17c.45,0,.9-.45,1.12-1.12.22-.73,0-1.46-.45-1.63-6.01-2.75-13.88-5.51-24.49-8.2,4.33-3.26,15.62-3.2,27.86.51,14.66,4.49,25.22,12.53,23.59,18.03h-.06Z"/>
  <path class="cls-16" d="M371.4,358.59c0,5.06-10.79,9.16-24.04,9.16-10.79,0-19.94-2.7-22.98-6.46,9.21-.45,16.74-.56,22.98-.39.51,0,.96-.67.96-1.4s-.45-1.4-.96-1.4c-6.12-.84-13.88-1.18-23.82-.84,1.69-4.38,11.74-7.81,23.82-7.81,13.26,0,24.04,4.1,24.04,9.1v.06Z"/>
  <path class="cls-23" d="M339.88,382.01c0,5.45-11.52,9.83-25.78,9.83-11.85,0-21.8-3.03-24.83-7.19,12.02,1.12,21.01,1.24,28.03.56.51,0,.96-.62,1.01-1.35v-.11c0-.73-.39-1.29-.84-1.35-7.53-.17-16.85-.67-28.82-1.91,1.91-4.72,12.58-8.26,25.45-8.26,14.27,0,25.78,4.38,25.78,9.83v-.06Z"/>
  <path class="cls-12" d="M319.55,360.21c0,5.45-10.73,9.83-23.93,9.83-12.36,0-22.53-3.88-23.76-8.82,12.53.67,21.85.45,29.04-.56.51,0,.9-.62.9-1.4s-.39-1.4-.9-1.4c-7.36.17-16.46,0-28.03-.67,3.09-3.93,12.13-6.8,22.75-6.8,13.2,0,23.93,4.38,23.93,9.83Z"/>
  <path class="cls-26" d="M269.21,365.27c-1.91,5.11-13.93,5.22-26.8.39-12.3-4.61-20.9-12.19-20-17.3,9.83,3.82,17.58,7.19,23.82,10.17h.22c.45,0,.9-.39,1.18-.95.34-.73.22-1.46-.28-1.69-5.39-3.43-12.58-6.97-22.19-10.9,4.55-2.3,14.1-1.63,24.21,2.19,12.86,4.89,21.74,12.92,19.83,17.98v.11Z"/>
  <path class="cls-13" d="M293.54,404.87c-2.92,4.61-15.34,1.91-27.81-5.9-10.5-6.63-17.7-14.83-17.92-20,8.59,3.99,15.45,7.47,21.01,10.5.06,0,.17.06.28.06.45,0,.9-.34,1.18-.9.34-.67.28-1.4-.17-1.69-5-3.6-11.68-7.42-20.56-11.74,4.21-2.86,15.45,0,26.68,7.02,12.47,7.86,20.22,17.98,17.36,22.53l-.06.11Z"/>
  <path class="cls-4" d="M242.87,378.58c-1.57,5.17-14.27,5.95-28.42,1.63-11.97-3.65-21.12-9.72-22.58-14.66,9.89,2.7,17.7,5.17,24.04,7.47h.22c.45,0,.9-.45,1.12-1.07.22-.73.06-1.46-.45-1.63-5.9-2.92-13.65-5.79-24.1-8.82,3.43-3.76,14.89-3.93,27.53-.11,14.1,4.33,24.27,11.97,22.64,17.19h0Z"/>
  <path class="cls-8" d="M223.15,341.79c.67,5.39-10.56,11.29-25.17,13.2-11.91,1.57-22.41,0-26.23-3.6,11.24-2.7,20.17-4.49,27.41-5.67.39-.06.67-.56.67-1.18v-.39c-.17-.79-.67-1.29-1.18-1.24-7.19.34-16.35,1.69-28.42,4.61.9-5.06,11.57-10.28,25.17-12.02,14.61-1.91,27.02.9,27.75,6.29Z"/>
  <path class="cls-7" d="M143.38,345.83h0c-.67,0-1.29.17-1.85.34.56-.22,1.18-.34,1.85-.39h0v.06Z"/>
</svg>