<?xml version="1.0" encoding="UTF-8"?>
<svg id="Layer_1" data-name="Layer 1" xmlns="http://www.w3.org/2000/svg" xmlns:xlink="http://www.w3.org/1999/xlink" viewBox="0 0 500 500">
  <defs>
    <style>
      .cls-1 {
        fill: url(#linear-gradient);
        mix-blend-mode: multiply;
        opacity: .48;
      }

      .cls-1, .cls-2 {
        isolation: isolate;
      }

      .cls-3 {
        fill: #fff;
      }

      .cls-4 {
        fill: #222;
      }

      .cls-5 {
        fill: #ff3b34;
      }
    </style>
    <linearGradient id="linear-gradient" x1="424.9" y1="366.66" x2="231.82" y2="55.08" gradientTransform="translate(0 502) scale(1 -1)" gradientUnits="userSpaceOnUse">
      <stop offset="0" stop-color="red" stop-opacity="0"/>
      <stop offset=".11" stop-color="#ff0404" stop-opacity=".08"/>
      <stop offset=".35" stop-color="#ff110f" stop-opacity=".3"/>
      <stop offset=".68" stop-color="#ff2521" stop-opacity=".64"/>
      <stop offset="1" stop-color="#ff3b34"/>
    </linearGradient>
  </defs>
  <g class="cls-2">
    <g id="Layer_1-2" data-name="Layer 1">
      <circle class="cls-4" cx="250" cy="250" r="238.86"/>
      <path class="cls-5" d="M472.58,250c0,122.73-99.85,222.58-222.58,222.58S27.42,372.73,27.42,250,127.27,27.42,250,27.42s222.58,99.85,222.58,222.58Z"/>
      <path class="cls-5" d="M250,5C114.69,5,5,114.69,5,250s109.69,245,245,245,245-109.69,245-245S385.31,5,250,5ZM412.24,412.24c-21.07,21.07-45.61,37.61-72.93,49.17-28.29,11.96-58.34,18.03-89.31,18.03s-61.02-6.07-89.31-18.03c-27.32-11.56-51.86-28.1-72.93-49.17-21.07-21.07-37.61-45.61-49.17-72.93-11.96-28.29-18.03-58.34-18.03-89.31s6.07-61.02,18.03-89.31c11.56-27.32,28.1-51.86,49.17-72.93,21.07-21.07,45.61-37.61,72.93-49.17,28.29-11.96,58.34-18.03,89.31-18.03s61.02,6.07,89.31,18.03c27.32,11.56,51.86,28.1,72.93,49.17,21.07,21.07,37.61,45.61,49.17,72.93,11.96,28.29,18.03,58.34,18.03,89.31s-6.07,61.02-18.03,89.31c-11.56,27.32-28.1,51.86-49.17,72.93Z"/>
      <path class="cls-1" d="M472.58,250c0,122.93-99.65,222.58-222.58,222.58-59.69,0-113.89-23.5-153.87-61.74,35.9,24.81,79.44,39.33,126.37,39.33,122.93,0,222.59-99.66,222.59-222.59,0-63.24-26.37-120.32-68.72-160.83,58.12,40.15,96.21,107.25,96.21,183.25h0Z"/>
      <path class="cls-3" d="M208.93,291.32c4.24,4.13,6.37,9.34,6.37,15.65,0,7.53-2.68,13.41-8.01,17.66-5.34,4.25-12.62,6.37-21.85,6.37s-16.26-2.49-21.85-7.46c-5.59-4.98-8.86-12.2-9.83-21.67h-64.34v-92.05c1.65,9.5,5.02,17.61,10.1,24.33,7.52,9.95,16.5,17.48,26.94,22.57,10.43,5.1,23.91,10.2,40.41,15.29,11.4,3.4,20.2,6.44,26.39,9.1,6.19,2.67,11.4,6.07,15.65,10.2h0ZM415.47,204.5c0,14.8-3.4,28.34-10.2,40.59-6.79,12.26-17.23,22.15-31.31,29.67-14.08,7.53-31.55,11.29-52.42,11.29h-38.59v91.74h-66.8c1.54-.35,3.05-.74,4.54-1.16,5.82-1.63,11.31-3.73,16.45-6.31,14.07-7.04,24.81-16.5,32.21-28.4,7.4-11.89,11.11-25.12,11.11-39.69,0-15.28-3.77-27.79-11.28-37.49-7.53-9.71-16.45-17.11-26.76-22.21-6.14-3.04-13.38-6.16-21.72-9.36-5.67-2.18-11.82-4.4-18.51-6.66-16.51-5.33-28.64-10.31-36.41-14.92-7.77-4.61-11.65-11.04-11.65-19.3,0-7.52,2.3-13.28,6.92-17.29,4.61-4.01,10.68-6.01,18.21-6.01,8.73,0,15.89,2.37,21.48,7.1s8.61,11.23,9.1,19.48h67.35c-1.22-24.03-10.44-42.78-27.67-56.25-8.33-6.51-17.94-11.45-28.82-14.81-2.83-.88-5.74-1.65-8.74-2.3h109.58c20.39,0,37.62,3.53,51.7,10.56,14.07,7.04,24.63,16.75,31.67,29.13,7.04,12.38,10.56,26.58,10.56,42.59h0ZM352.12,204.5c0-10.2-2.91-18.08-8.73-23.66-5.83-5.59-14.69-8.38-26.58-8.38h-33.86v64.07h33.86c11.89,0,20.75-2.79,26.58-8.37,5.83-5.58,8.73-13.47,8.73-23.66h0Z"/>
    </g>
  </g>
</svg>