<?xml version="1.0" encoding="UTF-8"?>
<svg id="Layer_1" data-name="Layer 1" xmlns="http://www.w3.org/2000/svg" viewBox="0 0 500 500">
  <defs>
    <style>
      .cls-1 {
        fill: none;
      }

      .cls-2, .cls-3 {
        fill: #231f20;
      }

      .cls-4, .cls-5 {
        fill: #00b1e6;
      }

      .cls-3, .cls-5 {
        font-family: Raleway-Black, Raleway;
        font-size: 33.34px;
        font-weight: 800;
      }
    </style>
  </defs>
  <path class="cls-2" d="M301,96.01l-12.96,61.66-3.03,14.42-2.28,10.84-9.34,44.42-6.14,29.22-2.53,12.06-2.7,12.85-.45,2.12-3.65,17.34c1.06,5.12,3.95,9.82,8.16,13.74l-.02.11h-43.54l13.28-63.53,2.69-12.87,2.31-11.05h-11.91l-22.28-25.68-16.26-18.74h59.74l2.27-10.84,10-47.84-21.7-28.24h60.33Z"/>
  <polygon class="cls-2" points="167.09 172.09 176.5 182.94 203.91 214.53 201.21 227.36 182.84 314.81 125.95 314.81 144.33 227.36 153.67 182.94 155.95 172.09 158.12 161.76 160.82 148.91 165.91 124.69 143.87 96.01 228.81 96.01 212.82 172.09 167.09 172.09"/>
  <polygon class="cls-4" points="459 113.07 453.35 139.65 445.21 177.94 442.87 188.97 441.62 188.97 428.69 177.94 394.35 148.66 396.27 139.65 360.16 139.65 357.84 150.6 352.03 177.94 308.14 177.94 317.33 188.97 343.1 219.95 340.44 232.49 332.26 271 368.36 271 371.87 254.49 374.61 241.6 376.54 232.49 367.03 232.49 345.85 207.04 330.8 188.97 402.83 188.97 436.73 217.89 433.62 232.49 425.44 271 420.08 296.22 417.35 309.12 416.13 314.81 282.45 314.81 268.9 302.83 275.66 271 283.85 232.49 293.09 188.97 295.44 177.94 298.02 165.78 300.76 152.88 303.58 139.65 309.92 109.74 312.84 96.01 446.54 96.01 458.67 106.35 459 113.07"/>
  <path class="cls-4" d="M426.07,324.85s0,.04,0,.07v.02c-.01.09-.03.19-.04.28-3.79,22.57-10.64,43.35-20.34,61.19-8.09,13.94-15.51,23.36-21.33,29.64,0,0,0,.01-.02.02-3.46,3.63-7.12,7-10.96,10.1-.01.01-.03.03-.04.04-.07.05-.13.1-.2.16-11.38,9.15-24.38,15.88-38.9,19.68-86.62,22.67-180.01-34.35-232.31-151.7-42.96-96.4-22.82-222.92,66.92-260.71,0,0,.04-.02.11-.05,6.27-2.63,12.87-4.83,19.81-6.56,1.26-.42,2.53-.82,3.8-1.19,0,0,.01,0,.03,0,19.61-4.24,49.27-5.92,80.87,9.42,8.32,4.04,16.78,9.25,25.22,15.91,0,0-74.37-33.52-129.74,9.51-.04.02-.07.04-.1.07-55.39,45.78-64.24,141.68-30.68,217.25,39.2,88.26,136.7,155.57,207.17,137.24,5.56-1.45,10.1-3.2,13.38-4.63,3.14-1.6,6.28-3.2,9.42-4.79,0,0,0,0,.03-.01,1.26-.51,41.83-17.56,57.93-80.93Z"/>
  <path class="cls-2" d="M152.01,25.97s-69.52,14.17-101.26,107.04c-31.74,92.87,20.73,214.33,61.65,258.41,40.93,44.07,70.13,67.51,131.7,81.85,61.56,14.34,102.84-16,102.84-16,0,0-38.83,20.2-100.48,5.25-61.65-14.95-110.45-66.02-126.89-89.98s-85.87-124.88-49.15-253.42c8.4-31.74,45.91-80.28,81.59-93.13Z"/>
  <path class="cls-4" d="M170.29,69.6s26.58-20.99,70.66-18.89,84.3,34.63,84.3,34.63h-23.26s-32.53-22.04-62.96-25.53c-30.43-3.5-53.52,1.75-68.73,9.79Z"/>
  <path class="cls-1" d="M328.22,410.3s31.83-14.34,47.75-41.1c15.92-26.76,16.27-32.98,19.76-44.13h12.59s-9.09,30.66-25.01,48.5-32.36,30.78-55.09,36.73Z"/>
  <path class="cls-4" d="M368.62,150.06l-1.31,6.65s8.22,13.99,11.37,21.6h16.79s-9.71-23.52-14.08-28.25h-12.77Z"/>
  <path class="cls-4" d="M408.32,325.07c-2.73,10.73-8.86,28.83-23.46,46.7-20.5,25.09-45.65,34.95-56.64,38.53,43.2-20.99,61.91-60.34,67.51-85.23h12.59Z"/>
  <text class="cls-3" transform="translate(184.2 338.6)"><tspan x="0" y="0">HORIZON</tspan></text>
  <text class="cls-5" transform="translate(256.5 371.66)"><tspan x="0" y="0">GROUP</tspan></text>
</svg>