<?xml version="1.0" encoding="UTF-8"?>
<svg id="Layer_1" data-name="Layer 1" xmlns="http://www.w3.org/2000/svg" viewBox="0 0 500 500">
  <defs>
    <style>
      .cls-1 {
        fill: #157eff;
      }
    </style>
  </defs>
  <path class="cls-1" d="M346.62,423.27h-195.71c-19.17,0-34.71-15.54-34.71-34.71V109.29c0-19.17,15.54-34.71,34.71-34.71h143.04c1.53,0,3,.61,4.08,1.69l81.61,81.61c1.08,1.08,1.69,2.55,1.69,4.08v226.6c0,19.17-15.54,34.71-34.71,34.71ZM150.91,90.58c-10.33,0-18.71,8.38-18.71,18.71v279.27c0,10.33,8.38,18.71,18.71,18.71h195.71c10.33,0,18.71-8.38,18.71-18.71v-222.36l-75.62-75.62h-138.8Z"/>
  <path class="cls-1" d="M320.54,228.99h-147.42c-4.42,0-8-3.58-8-8s3.58-8,8-8h147.42c4.42,0,8,3.58,8,8s-3.58,8-8,8Z"/>
  <path class="cls-1" d="M320.54,284.35h-147.42c-4.42,0-8-3.58-8-8s3.58-8,8-8h147.42c4.42,0,8,3.58,8,8s-3.58,8-8,8Z"/>
  <path class="cls-1" d="M222.69,339.72h-49.57c-4.42,0-8-3.58-8-8s3.58-8,8-8h49.57c4.42,0,8,3.58,8,8s-3.58,8-8,8Z"/>
  <path class="cls-1" d="M373.33,176.2h-91.41c-4.42,0-8-3.58-8-8v-85.62c0-4.42,3.58-8,8-8h11.11c2.12,0,4.16.84,5.66,2.34l80.3,80.3c1.5,1.5,2.34,3.54,2.34,5.66v5.32c0,4.42-3.58,8-8,8ZM289.92,160.2h69.42l-69.42-69.42v69.42Z"/>
</svg>