<?xml version="1.0" encoding="UTF-8"?>
<svg id="Layer_1" data-name="Layer 1" xmlns="http://www.w3.org/2000/svg" viewBox="0 0 500 500">
  <defs>
    <style>
      .cls-1 {
        fill: #157eff;
      }
    </style>
  </defs>
  <path class="cls-1" d="M44.53,218.15c4.45-10.85,18.97-12.7,29-16.88,18.1-7.54,37.14-14.72,55.7-22.13,38.16-15.23,77.17-32.72,116.54-45.93.61-.2.32-1.39,1.77-1.59,4.83-.67,4.46,1.1,5.87,1.59,57.54,20.08,116.42,44.68,172.24,68.06,8.06,3.37,25.24,6.82,28.24,15.64,1.53,4.48.88,9.6-1.77,13.52-3.91,5.79-25.08,11.68-32.51,14.72-.93.38-.97,1.51-1.62,1.77-18.58,7.54-37.86,13.59-56.33,21.38-.59,1.22-.66,2.53-.76,3.86-1.18,16.08,1.74,34.75.04,50.48-1.95,18.04-37.37,24.98-51.9,27.39-36.83,6.1-82.06,6.1-118.89,0-14.31-2.37-38.23-7.36-47.88-18.6-1.59-1.86-3.42-4.96-3.83-7.38-2.5-14.72,1-36.15-.16-51.89-.1-1.33-.17-2.64-.76-3.86l-48.14-18.13v23.62c9.23,5.19,13.36,13.84,9.78,24.18-.55,1.59-2.3,3-2.36,4.47-.31,8.09,7.12,24.88,7.62,34.04.35,6.41-3.57,10.67-9.83,11.37-5.3.59-19.6.66-24.76-.08-7.37-1.05-9.07-7.33-8.4-13.86.84-8.18,7.43-24.5,7.04-31.36-.08-1.36-2.5-4.03-2.93-6.55-1.78-10.37,1.8-17.74,11.06-22.36v-29.37c-10.56-6.17-27.58-5.82-32.08-18.95v-7.21ZM138.25,254.98v-26.02c0-.78,3.21-7.01,4.01-8.01,7.91-9.96,36.21-15.67,48.59-17.89,38.35-6.88,80.05-6.82,118.2.11,12.37,2.24,41.31,8.12,48.56,18.72.57.84,3.34,6.59,3.34,7.07v26.02c6.78-3.18,14.07-5.25,20.99-8.07,16.56-6.76,40.25-14.36,55.7-22.13.35-.18,4.1-3.04,3.82-3.43-16.8-7.71-34.66-13.26-51.87-20.06-37.99-15.03-76.61-31.43-114.57-46.62-8.46-3.38-17.17-6.35-25.77-9.38-45.86,18.73-91.86,36.02-138.04,54.22-.93.36-.97,1.52-1.62,1.77-17.24,6.79-34.8,13.05-52.25,19.27-.26,1.07,3.59,3.9,4.21,4.22,15.06,7.8,37.62,13.71,54.06,20.37.91.37.96,1.51,1.62,1.78,6.92,2.82,14.3,4.7,21.01,8.06ZM151.07,231.36v72.47c11.48-4.9,22.91-7.61,35.1-10.16,25-5.22,52.59-6.86,79.09-5.89,16.42.6,32.49,2.7,47.77,5.89,12.18,2.55,23.61,5.26,35.1,10.16v-72.47c-.98-1.2-2.19-2.07-3.42-2.99-8.61-6.47-21.85-9.56-32.48-11.57-38.23-7.25-121.85-9.36-155.3,10.01-2.16,1.25-4.21,2.66-5.86,4.55ZM82.72,285.61c-6.8.31-5.91,10.94-.14,10.95,6.99-.58,6.19-11.23.14-10.95ZM338.24,313.73c-16.96-8.13-53.07-11.6-72.19-12.34-25.16-.97-93.75,1.01-112.51,17.32-.8.69-2.62,1.79-2.41,3.02,7.91,8.07,20.53,10.32,31.17,12.93,15.56,3.82,32.48,6.14,49.24,6.83,28.02,1.15,58.94-.35,85.35-6.83,10.64-2.61,23.26-4.86,31.17-12.93.4-2.36-7.13-5.74-8.95-6.73-.44-.24-.6-1.14-.88-1.28ZM74.97,334.25h16.02l-6.1-24.87-5.08.09-4.84,24.78Z"/>
</svg>