<?xml version="1.0" encoding="UTF-8"?>
<svg id="Layer_1" data-name="Layer 1" xmlns="http://www.w3.org/2000/svg" viewBox="0 0 500 500">
  <defs>
    <style>
      .cls-1 {
        fill: #157eff;
      }
    </style>
  </defs>
  <path class="cls-1" d="M416.02,95.14h0v-.05c0-.13,0-.25-.01-.38,0-.02,0-.03,0-.05v-.04s0-.09-.01-.13c0-.02,0-.03,0-.05,0-.02,0-.04,0-.06v-.02c0-.09-.02-.17-.04-.26,0-.04,0-.08-.02-.12,0,0,0,0,0-.01,0-.02,0-.04-.01-.07h0s0-.03,0-.03c-.01-.07-.03-.14-.05-.21,0,0,0,0,0,0,0-.05-.02-.1-.03-.14h0s-.02-.08-.03-.12c0-.04-.02-.07-.03-.11,0,0,0-.02,0-.03,0,0,0-.02-.01-.03,0,0,0,0,0,0-.01-.04-.02-.07-.03-.11,0,0,0-.01,0-.02,0-.03-.02-.06-.03-.09h0s0-.03-.02-.05c0-.04-.02-.08-.04-.11,0-.04-.02-.07-.03-.11,0,0,0-.02-.02-.03,0,0,0,0,0-.01,0-.01-.01-.03-.02-.04,0-.02-.02-.05-.03-.07h0s0,0,0,0c-.02-.04-.03-.09-.05-.13-.02-.04-.03-.07-.05-.11,0-.02-.02-.05-.03-.08-.02-.05-.05-.1-.08-.15,0,0,0,0,0-.01,0-.02-.02-.04-.03-.06,0-.02-.01-.03-.03-.05,0-.02-.02-.04-.04-.06,0-.02-.01-.03-.02-.05,0-.01-.01-.02-.02-.03-.03-.06-.06-.11-.1-.17,0-.02-.02-.05-.04-.07t0,0s-.02-.03-.02-.04c-.02-.04-.05-.08-.08-.12-.01-.02-.02-.05-.04-.07-.01-.02-.02-.03-.04-.05-.03-.04-.06-.08-.08-.12-.02-.03-.04-.07-.06-.1,0-.02-.02-.02-.02-.03-.02-.02-.04-.05-.05-.07-.03-.04-.06-.07-.09-.11-.01-.01-.02-.03-.03-.04,0,0,0,0-.01-.01-.04-.05-.08-.1-.12-.15,0-.01-.02-.03-.03-.04,0,0-.02-.02-.02-.03,0-.02-.02-.03-.04-.04-.02-.02-.03-.04-.05-.06-.02-.02-.04-.04-.06-.07-.02-.02-.03-.04-.05-.06h0s-.06-.07-.09-.1c-.01-.01-.02-.02-.04-.03-.03-.03-.06-.05-.08-.08,0,0-.02-.02-.03-.02h0l-.09-.09s-.02,0-.02-.02c0,0-.02-.01-.02-.02-.01-.01-.03-.02-.04-.04-.01-.01-.03-.03-.04-.04,0,0-.02-.02-.03-.02-.02-.02-.05-.04-.08-.06-.06-.05-.12-.1-.18-.15-.03-.02-.05-.04-.08-.06-.05-.04-.1-.08-.15-.11-.01-.01-.03-.02-.05-.04-.01-.01-.03-.03-.05-.03,0,0,0,0,0,0h0s-.03-.02-.04-.03c-.04-.03-.08-.05-.12-.07-.03-.02-.06-.04-.09-.06-.02-.01-.04-.02-.06-.03-.04-.02-.07-.04-.11-.06,0,0,0,0,0,0-.03-.02-.05-.03-.08-.05,0,0-.02,0-.03-.02,0,0-.02,0-.03-.01-.05-.03-.1-.06-.16-.08-.02,0-.04-.02-.06-.03,0,0-.02-.02-.03-.02-.02,0-.03-.02-.05-.02-.05-.02-.1-.05-.15-.07,0,0,0,0,0,0-.03-.02-.07-.03-.1-.05-.02-.02-.05-.02-.08-.04,0,0,0,0-.02,0,0,0-.02,0-.03-.01-.02,0-.04-.01-.05-.02-.07-.03-.14-.05-.21-.08-.01,0-.03,0-.04-.01-.05-.02-.1-.03-.15-.05,0,0,0,0-.01,0-.02,0-.05-.01-.08-.02-.06-.02-.12-.04-.18-.05-.04-.01-.08-.03-.12-.04,0,0,0,0-.02,0-.04-.01-.08-.02-.12-.03-.03,0-.06-.01-.09-.02,0,0-.02,0-.02,0-.05-.01-.09-.02-.14-.03-.05-.01-.1-.02-.16-.03-.02,0-.03-.01-.05-.01-.05,0-.09-.02-.13-.02-.02,0-.04,0-.05,0-.03,0-.07-.01-.1-.02-.03,0-.06,0-.09,0,0,0-.02,0-.03,0,0,0-.01,0-.02,0,0,0-.01,0-.02,0-.07,0-.13-.01-.2-.02-.02,0-.03,0-.05,0-.03,0-.05,0-.08,0-.04,0-.08,0-.12,0-.06,0-.11,0-.17,0,0,0-.02,0-.02,0-.04,0-.09,0-.13,0h0c-.11,0-.21,0-.31.01-.05,0-.1,0-.15,0h0s-.06,0-.09,0c-.05,0-.09,0-.14.01,0,0,0,0,0,0h-.02c-.09,0-.17.02-.26.04-.02,0-.05,0-.07,0-.04,0-.09.01-.13.02,0,0,0,0,0,0,0,0,0,0,0,0-.1.02-.2.04-.3.06-.03,0-.06,0-.08.02h0s-.06.02-.09.02c-.06.01-.12.03-.17.05-.05.02-.11.03-.16.05-.03,0-.06.02-.08.03-.02,0-.05.02-.07.02,0,0-.02,0-.02,0-.05.02-.11.03-.17.05-.02,0-.03.02-.05.02,0,0-.02,0-.02,0-.02,0-.05.02-.07.03-.02,0-.03.01-.04.02-.03.01-.06.02-.08.03-.07.03-.13.06-.2.08-.04.02-.07.04-.11.05-.02,0-.03,0-.05.02,0,0,0,0,0,0-.02.01-.04.02-.06.03-.02,0-.03.01-.05.03-.01,0-.03.01-.04.02-.03.01-.05.02-.08.04l-248.99,133.35c-3.31,1.77-4.56,5.9-2.79,9.21,1.23,2.29,3.57,3.59,6,3.59,1.08,0,2.18-.26,3.21-.81l196.25-105.1h0s-199.53,174.32-199.53,174.32l-68.29-30.88,30.77-16.48c3.31-1.77,4.56-5.9,2.79-9.21-1.77-3.31-5.9-4.56-9.21-2.79l-42.9,22.98s-.02,0-.03.01c-.5.27-.96.61-1.39,1-.09.08-.18.16-.26.24-.06.06-.11.13-.17.19-.1.11-.2.22-.3.34,0,.01-.02.02-.03.03-.08.09-.14.18-.2.27,0,0-.01.02-.02.03-.08.12-.16.24-.24.37-.03.06-.07.11-.11.16-.05.08-.08.14-.12.22-.06.11-.11.23-.17.34,0,.02,0,.02-.02.04-.04.08-.07.16-.11.24-.07.18-.13.37-.19.55,0,0,0,0,0,0-.07.23-.13.46-.17.69-.02.11-.04.23-.05.34,0,.06-.01.11-.02.16,0,.05-.01.11-.02.16,0,.06-.01.11-.02.17,0,.14-.02.29-.02.44s0,.28.02.42c0,.05,0,.1.01.15,0,.05,0,.1.02.15,0,.08.02.15.03.23.01.07.02.13.04.2.01.07.02.14.04.22,0,.04.01.09.02.13.03.14.07.27.11.4,0,0,0,0,0,0,.02.05.04.11.05.16.04.14.09.28.15.42.03.07.06.14.09.21.02.04.03.07.04.11.05.12.11.23.17.34.01.02.02.05.03.07.01.02.03.05.04.07.12.23.26.44.41.65.06.08.12.16.18.24.06.08.12.17.19.24.06.07.13.14.2.21.06.07.13.13.19.2.09.1.19.19.3.28.07.06.14.12.21.18.04.03.07.06.11.09.02.01.03.03.05.04.06.04.13.08.19.12.19.14.39.27.59.38.02.01.04.03.06.04.15.08.3.16.46.23l.1.05s.06.03.09.04l.11.05,82.07,37.12,36.9,90.66c.02.06.05.12.08.17,0,.03.02.06.03.09.03.07.06.14.09.2.02.02.02.05.04.08,0,.01.01.03.02.04.03.07.07.13.11.2.02.04.04.08.06.11.03.05.06.1.09.15.05.09.11.18.16.26.03.04.05.08.07.12.05.07.09.13.14.19.02.03.04.05.06.08.02.03.05.06.07.09.01.02.03.04.04.06.02.03.05.05.07.08.02.02.05.04.07.07.16.18.32.35.5.51.03.03.06.06.09.09.05.04.1.08.15.12,0,0,.02.01.02.02.01.01.03.02.04.04.16.13.33.26.51.38.21.14.43.27.66.39.07.04.13.07.2.1.02,0,.03.02.05.03h0s.08.03.11.05c.03.02.07.03.1.05.02.02.05.02.07.03.06.02.12.05.18.07.02.02.05.02.08.03.08.03.17.06.25.08.09.03.17.06.26.08.04.01.07.02.11.03.07.02.14.04.22.05,0,0,.02,0,.03,0,.02,0,.05.02.07.02.11.03.22.05.33.06,0,0,.02,0,.02,0,.06,0,.12.02.18.03,0,0,0,0,.01,0,.06.02.12.02.18.02l.27.02c.12,0,.24.01.36.01.02,0,.04,0,.06,0,.03,0,.05,0,.08,0,.11,0,.22,0,.33-.01.09,0,.17,0,.26-.02.04,0,.08-.01.12-.02.02,0,.03,0,.05,0,.04,0,.09,0,.13-.02.07,0,.14-.02.22-.04.14-.02.28-.05.42-.08,0,0,0,0,.01,0,0,0,0,0,0,0,.13-.04.27-.07.4-.11.09-.03.17-.06.26-.09.05-.02.11-.04.16-.06.03-.01.06-.02.09-.03,0,0,.02,0,.02,0,.02,0,.04-.02.06-.03.02,0,.04-.02.05-.02.03,0,.06-.02.1-.04.05-.02.09-.05.14-.07.05-.02.08-.05.13-.06.02-.01.05-.02.07-.04.02-.01.04-.02.07-.03.07-.04.14-.07.21-.11.03-.02.06-.04.09-.05.03-.02.06-.04.1-.07.06-.03.12-.07.18-.11,0,0,.02-.01.03-.02.04-.02.07-.05.11-.07,0,0,.02,0,.02-.02,0,0,0,0,.01-.01,0,0,0,0,.01-.01.08-.05.17-.12.25-.18.08-.06.15-.12.23-.18.02-.02.04-.03.06-.05.03-.03.06-.06.1-.09,0,0,.01-.01.02-.02.02-.02.05-.04.07-.06.05-.04.09-.08.13-.13.02,0,.02-.02.03-.03.09-.08.17-.17.25-.26.01-.01.02-.02.03-.04.02-.02.03-.04.04-.05.08-.1.16-.19.24-.29.08-.1.15-.2.22-.31.01-.02.02-.03.03-.05l36.07-53.55,123.59,55.9h0s.1.05.15.07c.09.04.19.08.28.12.02,0,.05.01.07.02.28.11.57.2.87.26,0,0,.02,0,.03,0,.07.02.14.02.22.04.13.02.25.05.38.07.07,0,.13,0,.2.01.09.01.18.03.27.03.14,0,.26.01.39.01.02,0,.04,0,.06,0,.92,0,1.8-.19,2.61-.53.03-.01.07-.03.1-.04.03-.01.06-.03.09-.04.43-.2.85-.44,1.23-.72,0,0,0,0,0,0,.01,0,.02-.02.03-.03.76-.57,1.4-1.29,1.87-2.13,0-.01.02-.03.02-.04.08-.15.16-.31.23-.47.01-.02.02-.04.03-.07,0-.02.01-.03.02-.05,0-.01.01-.02.01-.03.02-.05.03-.09.05-.14.05-.13.11-.27.15-.4,0,0,0,0,0,0,.05-.15.1-.31.14-.48.01-.03.02-.06.02-.1,0,0,0,0,0,0,0-.04.02-.07.03-.11v-.02c.03-.15.06-.3.08-.46,0-.05.01-.1.02-.16l26.85-199.33c.5-3.72-2.11-7.15-5.83-7.65-3.71-.5-7.15,2.11-7.65,5.83l-25.65,190.39-120.45-54.47c-.07-.03-.14-.06-.2-.09l-26.2-11.85,184.33-211.82-5.56,41.24c-.5,3.72,2.11,7.15,5.83,7.65.31.04.61.06.92.06,3.35,0,6.27-2.48,6.73-5.89l8.59-63.75s0-.06,0-.09c0,0,0,0,0-.01,0,0,0-.02,0-.03h0s0-.05,0-.07c0-.02,0-.05,0-.07,0-.04,0-.08,0-.13,0-.03,0-.05,0-.08,0-.05,0-.1,0-.15,0-.04,0-.08,0-.11,0-.04,0-.07,0-.11v-.02ZM228.41,349.46h0s-20.76,30.81-20.76,30.81h0s2.48-39.07,2.48-39.07l18.28,8.26ZM202.17,322.67l-3.2,3.68-.12.14c-.14.16-.27.32-.39.5-.11.15-.21.31-.31.47,0,.02-.02.03-.03.05-.11.17-.2.36-.29.54-.08.18-.17.37-.23.56-.06.17-.12.35-.17.52,0,.03-.02.05-.02.08-.05.17-.08.33-.11.5-.03.16-.05.32-.07.49-.02.1-.02.2-.03.29v.02l-.29,4.69-2.52,39.6-20.32-49.94-4.6-11.28,4.32-3.77,165.03-144.18-136.64,157.02Z"/>
  <circle class="cls-1" cx="137.11" cy="238.89" r="6.78"/>
  <circle class="cls-1" cx="398.03" cy="178.96" r="6.78"/>
</svg>