<?xml version="1.0" encoding="UTF-8"?>
<svg id="Layer_1" data-name="Layer 1" xmlns="http://www.w3.org/2000/svg" viewBox="0 0 500 500">
  <defs>
    <style>
      .cls-1 {
        fill: #157eff;
      }
    </style>
  </defs>
  <path class="cls-1" d="M380.67,105.06H119.32c-10.06,0-18.24,8.18-18.24,18.24v174.68c0,10.06,8.18,18.24,18.24,18.24h34.42c-.27-5.96-.6-11.24-.91-16.04h-33.51c-1.21,0-2.2-.99-2.2-2.2V123.3c0-1.21.99-2.2,2.2-2.2h261.35c1.22,0,2.2.99,2.2,2.2v174.68c0,1.21-.98,2.2-2.2,2.2h-194.5c2.56,5.83,9.15,9.95,16.27,9.95h.14c1.45.4,2.78,1.66,3.96,3.75.41.73.78,1.52,1.11,2.34h173.02c10.06,0,18.24-8.18,18.24-18.24V123.3c0-10.06-8.18-18.24-18.24-18.24Z"/>
  <path class="cls-1" d="M127.97,132.58v90.57h90.58v-90.57h-90.58ZM207.86,212.46h-69.2v-69.19h69.2v69.19Z"/>
  <path class="cls-1" d="M173.35,154.36c-9.1,0-16.5,7.4-16.5,16.5,0,4.44,1.76,8.47,4.63,11.44,3,3.12,7.21,5.06,11.87,5.06s8.83-1.92,11.83-5.01c2.89-2.97,4.67-7.02,4.67-11.49,0-9.1-7.4-16.5-16.5-16.5ZM173.35,163.72c3.94,0,7.14,3.2,7.14,7.14s-3.2,7.14-7.14,7.14-7.14-3.2-7.14-7.14,3.2-7.14,7.14-7.14Z"/>
  <path class="cls-1" d="M207.86,197.97c-5.59-7.42-13.52-13-22.68-15.62-3.79-1.1-7.79-1.68-11.93-1.68s-8.03.57-11.77,1.63c-9.22,2.6-17.19,8.19-22.82,15.66-5.32,7.04-8.53,15.76-8.7,25.19h9.36c.09-3.74.78-7.34,2-10.69,4.73-13.06,17.26-22.43,31.93-22.43s27.22,9.37,31.95,22.43c1.21,3.35,1.91,6.95,2,10.69h9.36c-.17-9.43-3.39-18.14-8.7-25.18Z"/>
  <path class="cls-1" d="M329.68,150.81h-61.29c-2.95,0-5.35-2.39-5.35-5.35s2.39-5.35,5.35-5.35h61.29c2.95,0,5.35,2.39,5.35,5.35s-2.39,5.35-5.35,5.35Z"/>
  <path class="cls-1" d="M365.11,176.21h-127.06c-2.95,0-5.35-2.39-5.35-5.35s2.39-5.35,5.35-5.35h127.06c2.95,0,5.35,2.39,5.35,5.35s-2.39,5.35-5.35,5.35Z"/>
  <path class="cls-1" d="M365.11,198.6h-127.06c-2.95,0-5.35-2.39-5.35-5.35s2.39-5.35,5.35-5.35h127.06c2.95,0,5.35,2.39,5.35,5.35s-2.39,5.35-5.35,5.35Z"/>
  <path class="cls-1" d="M365.11,220.99h-127.06c-2.95,0-5.35-2.39-5.35-5.35s2.39-5.35,5.35-5.35h127.06c2.95,0,5.35,2.39,5.35,5.35s-2.39,5.35-5.35,5.35Z"/>
  <path class="cls-1" d="M362.2,244.31h-87.59c-2.78,0-5.04,2.25-5.04,5.03v31.92c0,2.78,2.26,5.03,5.04,5.03h87.59c2.77,0,5.03-2.25,5.03-5.03v-31.92c0-2.78-2.26-5.03-5.03-5.03ZM359.21,278.27h-81.62v-25.94h81.62v25.94Z"/>
  <path class="cls-1" d="M299.57,371.13h-132.52c-3.52,0-6.37,2.86-6.37,6.37v36.8c0,3.51,2.85,6.37,6.37,6.37h132.52c3.51,0,6.37-2.86,6.37-6.37v-36.8c0-3.51-2.86-6.37-6.37-6.37ZM295.25,409.97h-123.88v-28.15h123.88v28.15Z"/>
  <path class="cls-1" d="M225.59,275.97c-9.08,7.04-16.92,13.12-28.14,17.71-1.87.77-1.73,1.38-1.67,1.68.35,1.56,2.96,4.27,7.02,4.07l.57-.03.57.09c.9.15,1.78.38,2.62.69,3.74,1.36,6.91,4.23,9.29,8.43,1.32,2.32,2.33,4.92,3.05,7.61,1.96,7.26,1.83,15.11.04,19.64-1.08,2.75-4.18,4.09-6.93,3.02-2.75-1.08-4.1-4.19-3.02-6.93,1.1-2.79.87-10.13-1.34-15.73-.33-.82-.7-1.61-1.11-2.34-1.18-2.09-2.51-3.35-3.96-3.75h-.14c-7.12,0-13.71-4.12-16.27-9.95-.36-.81-.64-1.64-.83-2.51-1.3-5.9,1.86-11.35,8.07-13.89,9.86-4.03,16.82-9.43,25.63-16.26,5.31-4.11,9.5-14.82,8-20.47-.5-1.88-1.5-2.73-3.59-3.03-14.12-2.02-42.92.02-43.21.04-5.78.47-21.74,3.91-25.57,14.01-3.97,10.49-3.31,20.25-2.12,37.97.09,1.34.19,2.72.28,4.14.31,4.8.64,10.08.91,16.04.03.66.06,1.32.09,2,1.21,28.37,26.62,31.59,27.7,31.72l5.02.57-1.2,20.62-.27,4.6c-.16,2.84-2.52,5.03-5.33,5.03-.11,0-.21,0-.32-.01-2.95-.17-5.2-2.7-5.02-5.65l.23-3.97.67-11.52c-12.77-3.35-31.05-14.7-32.16-40.93-.04-.83-.07-1.65-.11-2.46-.28-5.96-.61-11.24-.93-16.04-.08-1.17-.16-2.31-.23-3.42-1.25-18.59-2.01-29.81,2.79-42.47,7.02-18.53,33.65-20.81,34.78-20.9,1.25-.08,30.26-2.14,45.51.04,6.3.9,10.83,4.87,12.42,10.88,2.83,10.7-3.89,25.54-11.79,31.66Z"/>
  <path class="cls-1" d="M284.59,380.77c-2.47,0-4.69-1.72-5.23-4.24-3.09-14.6,4.95-21.36,13.47-28.53,3.46-2.91,7.03-5.91,10.57-9.85,10.14-11.28,3.07-27.03,2.76-27.7-1.23-2.67-.07-5.85,2.6-7.09s5.84-.1,7.09,2.57c.43.92,10.42,22.77-4.5,39.37-4.04,4.49-8.08,7.89-11.64,10.89-8.66,7.28-11.57,10.2-9.89,18.12.61,2.89-1.23,5.73-4.12,6.34-.37.08-.75.12-1.11.12Z"/>
</svg>