<?xml version="1.0" encoding="UTF-8"?>
<svg id="Layer_1" data-name="Layer 1" xmlns="http://www.w3.org/2000/svg" viewBox="0 0 500 500">
  <defs>
    <style>
      .cls-1 {
        fill: #157eff;
      }
    </style>
  </defs>
  <path class="cls-1" d="M240.59,424.44v-55.01c-79.87-4.26-143.54-70.58-143.54-151.5S165.11,66.22,248.76,66.22c57.08,0,108.79,31.55,134.95,82.33l.24.51c10.06,23.35,15.59,48.25,16.42,74v.02c.07,2.31.1,4.57.1,6.71,0,45.52-15.2,89.89-42.81,124.94-27.31,34.67-65.38,58.68-107.2,67.59l-9.88,2.11ZM248.76,82.58c-74.64,0-135.36,60.72-135.36,135.36s60.72,135.36,135.36,135.36h8.18v50.62c74.27-20.75,127.18-92.33,127.18-174.11,0-1.97-.03-4.07-.1-6.21-.76-23.6-5.8-46.41-14.98-67.79-23.38-45.17-69.44-73.22-120.28-73.22Z"/>
  <path class="cls-1" d="M196.65,188.46c.69-7.46,2.45-14.19,5.29-20.2,2.84-6.01,6.54-11.12,11.11-15.35,4.57-4.22,9.88-7.48,15.93-9.75,6.06-2.28,12.68-3.42,19.88-3.42,7.61,0,14.57,1.04,20.86,3.12,6.3,2.08,11.69,4.99,16.19,8.71,4.5,3.73,7.99,8.17,10.48,13.32,2.49,5.15,3.74,10.76,3.74,16.84,0,7-1.66,13.37-4.98,19.11-3.11,5.81-9,12.12-17.65,18.92-3.74,2.97-6.75,5.59-9.03,7.87-2.28,2.28-3.81,4.24-4.57,5.89-1.59,3.24-2.39,10.4-2.39,21.49h-26.88c.07-7.59.47-14.03,1.19-19.31.73-5.28,1.89-9.47,3.48-12.58,3.11-6.07,8.75-12.34,16.92-18.82,3.53-2.84,6.32-5.26,8.36-7.28,2.04-2.01,3.58-3.8,4.62-5.35s1.68-3,1.92-4.36c.24-1.35.36-2.82.36-4.41,0-2.97-.55-5.69-1.66-8.17-1.11-2.48-2.65-4.64-4.62-6.49-1.97-1.85-4.33-3.28-7.06-4.31-2.73-1.02-5.76-1.53-9.08-1.53-13.08,0-21,8.68-23.77,26.04h-28.65Z"/>
  <rect class="cls-1" x="233.5" y="278.87" width="29.79" height="28.03" rx="14.01" ry="14.01"/>
</svg>