<?xml version="1.0" encoding="UTF-8"?>
<svg id="Layer_1" data-name="Layer 1" xmlns="http://www.w3.org/2000/svg" viewBox="0 0 500 500">
  <defs>
    <style>
      .cls-1 {
        fill: #ec00ff;
      }

      .cls-2 {
        opacity: .56;
      }

      .cls-3 {
        fill: #157eff;
      }
    </style>
  </defs>
  <g class="cls-2">
    <polygon class="cls-1" points="253.39 227.5 246.62 233.53 246.61 233.51 253.33 227.5 253.39 227.5"/>
  </g>
  <path class="cls-3" d="M404.95,227.5l-34.15-31.23v-83.45c0-11.76-9.57-21.32-21.32-21.32h-200.24c-11.77,0-21.32,9.55-21.32,21.32v85.45l-32.81,29.23h-.05c-2.19,0-3.97,1.78-3.97,3.97v153.12c0,13.21,10.7,23.91,23.91,23.91h270c13.21,0,23.92-10.71,23.92-23.92v-153.11c0-2.19-1.78-3.97-3.97-3.97h0ZM385.68,227.5l6.52,5.96-9.54,7.04-11.89,8.77v-35.42l.03.03,14.88,13.62ZM140.92,112.82c0-4.59,3.72-8.32,8.32-8.32h200.24c4.6,0,8.32,3.72,8.32,8.32v87.65h-.03v58.4l-66.23,48.87-39.76-30.38c-1.1-.84-2.62-.84-3.72,0l-39.68,30.31-67.46-49.78V112.82ZM114.6,227.5l13.32-11.93v32.73l-10.57-7.8-9.46-6.97v-.02s6.71-6.01,6.71-6.01ZM104.08,384.59v-137.72l93.54,69.02-93.24,71.23c-.2-.81-.3-1.66-.3-2.53ZM114.83,395.5l135.09-103.2,135.09,103.2H114.83ZM395.92,384.59c0,.91-.11,1.8-.32,2.64l-93.31-71.28,93.63-69.08v137.72Z"/>
  <path class="cls-3" d="M320.06,265.56h-140.12c-3.59,0-6.5-2.91-6.5-6.5s2.91-6.5,6.5-6.5h140.12c3.59,0,6.5,2.91,6.5,6.5s-2.91,6.5-6.5,6.5Z"/>
  <path class="cls-3" d="M338.82,240.67h-177.65c-3.59,0-6.5-2.91-6.5-6.5s2.91-6.5,6.5-6.5h177.65c3.59,0,6.5,2.91,6.5,6.5s-2.91,6.5-6.5,6.5Z"/>
  <path class="cls-3" d="M337.35,115.79h-174.7c-4.85,0-8.8,3.95-8.8,8.8v82.41c0,4.85,3.95,8.79,8.8,8.79h174.7c4.85,0,8.8-3.94,8.8-8.79v-82.41c0-4.85-3.95-8.8-8.8-8.8ZM333.15,202.79h-166.3v-74h166.3v74Z"/>
  <g>
    <path class="cls-3" d="M210.97,146.3v25.89c0,2.25-.1,4.16-.29,5.73s-.62,3.17-1.3,4.79c-1.12,2.72-2.98,4.84-5.56,6.35s-5.73,2.28-9.44,2.28c-3.35,0-6.14-.53-8.38-1.58s-4.04-2.76-5.41-5.12c-.72-1.26-1.3-2.71-1.75-4.35s-.67-3.2-.67-4.69c0-1.57.44-2.78,1.31-3.61s2-1.25,3.37-1.25,2.33.38,3,1.15,1.19,1.96,1.55,3.57c.38,1.73.76,3.11,1.15,4.15s1.02,1.92,1.92,2.66,2.18,1.11,3.84,1.11c4.43,0,6.64-3.25,6.64-9.74v-27.34c0-2.02.44-3.54,1.33-4.55s2.1-1.52,3.62-1.52,2.78.51,3.69,1.52,1.37,2.53,1.37,4.55Z"/>
    <path class="cls-3" d="M243.57,140.24c5.12,0,9.52,1.04,13.2,3.12,3.67,2.08,6.46,5.03,8.34,8.87s2.83,8.33,2.83,13.5c0,3.82-.52,7.29-1.55,10.42s-2.58,5.83-4.65,8.12-4.61,4.05-7.62,5.26-6.46,1.82-10.35,1.82-7.33-.62-10.38-1.87-5.61-3.01-7.65-5.28-3.59-5-4.64-8.19-1.57-6.64-1.57-10.35.55-7.28,1.64-10.45,2.67-5.87,4.74-8.09,4.58-3.93,7.55-5.11,6.34-1.77,10.11-1.77ZM257.8,165.66c0-3.62-.58-6.75-1.75-9.41s-2.84-4.66-5.01-6.02-4.66-2.04-7.47-2.04c-2,0-3.85.38-5.55,1.13s-3.16,1.85-4.38,3.29-2.19,3.28-2.9,5.51-1.06,4.75-1.06,7.53.35,5.35,1.06,7.62,1.71,4.15,3,5.65,2.78,2.61,4.45,3.35,3.51,1.11,5.51,1.11c2.56,0,4.92-.64,7.06-1.92s3.85-3.26,5.12-5.93,1.9-5.97,1.9-9.88Z"/>
    <path class="cls-3" d="M297.61,190.5h-15.1c-2.18,0-3.74-.49-4.67-1.47s-1.4-2.53-1.4-4.67v-37.15c0-2.18.48-3.75,1.43-4.7s2.5-1.43,4.64-1.43h16.01c2.36,0,4.4.15,6.14.44s3.28.85,4.65,1.69c1.17.7,2.2,1.58,3.1,2.65s1.58,2.25,2.06,3.54.71,2.66.71,4.1c0,4.94-2.47,8.56-7.42,10.86,6.5,2.07,9.74,6.09,9.74,12.07,0,2.76-.71,5.25-2.12,7.47s-3.33,3.85-5.73,4.91c-1.51.63-3.24,1.07-5.19,1.33s-4.24.39-6.84.39ZM286.45,148.6v12.78h9.17c2.49,0,4.42-.24,5.78-.71s2.4-1.37,3.12-2.7c.56-.94.84-2,.84-3.17,0-2.49-.89-4.15-2.66-4.97s-4.48-1.23-8.12-1.23h-8.12ZM296.87,168.55h-10.42v14.43h10.75c6.76,0,10.15-2.44,10.15-7.32,0-2.49-.88-4.3-2.63-5.43s-4.37-1.69-7.85-1.69Z"/>
  </g>
</svg>