<?xml version="1.0" encoding="UTF-8"?>
<svg id="Layer_1" data-name="Layer 1" xmlns="http://www.w3.org/2000/svg" viewBox="0 0 500 500">
  <defs>
    <style>
      .cls-1 {
        fill: #fff;
      }

      .cls-2 {
        fill: #157eff;
      }
    </style>
  </defs>
  <path class="cls-2" d="M415.95,356.15c-2.71-11.19-15.28-24.71-26.82-24.71h-9.85l-.07-81.37v-.08c-.83-4.59-2.38-7.95-4.74-10.28-.45-.43-6.36-4.48-7.42-4.48h-88.42v-118.65l35.47,33.92,2.74,4.57.34,63.18.02.07c.54,3.46,3.4,5.03,5.82,5.03s5.18-1.54,5.64-4.98v-.09s0-.09,0-.09c-.69-9.64-.3-20.03.1-30.06.42-10.85.84-22.08-.1-32.42-.38-4.26-2.36-8.7-5.46-12.24l-46.22-44.85-.08-.04c-1.2-.77-2.85-1.83-4.7-1.83-.44,0-.89.06-1.35.19l-80.52,27.43v-19.26c0-.56-1.59-5-1.69-5.23-2.58-5.77-8.1-9.22-14.77-9.22-7.25,0-15.21,4.5-16.37,13.1-.32,2.33-.17,9.1-.02,16.26.14,6.13.3,13.68.04,15.22-3.19,1.24-6.54,2.24-9.78,3.2-12.79,3.82-24.87,7.42-26.06,24.5l.03,168.49c-15.37.21-30.93,11.42-36.32,26.23-.88,2.4-2.37,7.14-2.63,9.64-.58,5.39-.33,11.35-.08,17.12.23,5.18.45,10.53.07,15.41v.19s.05.18.05.18c2.51,6.71,6.76,9.71,14.75,10.33h303.95c6.37-.06,14.23-3.13,15.38-11.56,1.03-7.63.89-35.36-.93-42.85ZM121.71,399.05h-25.37c-.32-.06-1.5-.7-2.11-1.16v-17.91h27.48v19.07ZM121.71,368.49h-27.35c2.31-14.13,13.82-24.89,27.35-25.53v25.53ZM168.9,105.22c.45-1.87,2.3-3.17,4.54-3.17s4.99,1.51,5.42,5.76c.29,2.85.37,17.99-.16,20.42l-9.8,3.32v-26.32ZM185.99,399.05h-17.09v-36.6c5.28-2.36,11.27-3.71,17.09-5v41.6ZM215.21,398.58l-.46.47h-16.81l-.47-.47v-44.64c2.74-.25,5.98-1.45,9.13-2.61,3.11-1.15,6.05-2.24,8.17-2.3,0,0,.3,0,.3,0,.03.03.09.1.14.16v49.39ZM267.15,135.38l-104.72,35.05c-3.99,1.08-5.44,4.13-5.1,6.69.3,2.34,2.2,4.7,5.72,4.7.67,0,1.37-.1,2.16-.29l101.93-33.92v22.87l-104.72,35.05c-3.99,1.08-5.44,4.13-5.1,6.69.3,2.34,2.2,4.7,5.72,4.7.67,0,1.37-.09,2.16-.29l101.93-33.92v22.87l-104.72,35.05c-3.99,1.08-5.44,4.13-5.1,6.7.3,2.34,2.2,4.69,5.72,4.69.67,0,1.37-.09,2.16-.29l101.93-33.92v22.87l-106.32,35.53-.05.03c-2.64,1.3-3.94,3.88-3.32,6.56.62,2.64,2.84,4.4,5.54,4.4.71,0,1.46-.12,2.21-.36l101.93-33.92v22.02c-2.67,1.55-5.91,2.66-9.04,3.73-.81.28-1.61.56-2.38.83-6.47,2.31-13.49,4.41-20.91,6.63-11.38,3.4-23.13,6.92-32.73,11.27-3.37,1.53-5.22,3.93-4.97,6.41.25,2.45,2.47,4.38,5.92,5.16l.23.05,63.87-21.02v110.57l-.46.47h-40.01v-51.46c0-5.05-6.66-10.16-11.45-10.16-.24,0-.48.02-.7.03l-.1.02-.1.03c-6.9,2.34-14.59,4.16-22.03,5.91-8.81,2.08-17.91,4.22-25.89,7.28-2.61,1.01-4.6,2.28-5.9,3.79-.63.73-3.12,4.95-3.12,6.11v37.99l-.46.47h-23.31l-.47-.47v-237.55c0-2.21,4.31-7.45,6.86-7.75l.09-.02,127.03-42.7v24.82ZM348.32,399.05h-69.69v-19.07h69.69v19.07ZM348.26,368.49h-69.63v-121.77h86.28c.93.54,3.13,3.65,2.93,4.43l-.03.1.02,82.68c-13.25,6.68-20.51,19.51-19.57,34.55ZM405.47,397.51c-.1.2-.33.59-.47.79-.32.1-.67.28-1.01.44-.21.1-.51.26-.64.3h-43.08l-.47-.47v-18.6h45.67v17.53ZM405.54,368.49h-45.81c-.5-7.44,1.46-13.81,5.71-18.45,4.25-4.65,10.59-7.33,17.41-7.33s13.06,2.66,17.23,7.28c4.19,4.65,6.08,11.03,5.46,18.51Z"/>
  <path class="cls-1" d="M173.34,324.63c-2.17,1.26-18.68,6.77-21.28,7.16-1.92.29-4.36.49-5.96-.8-2.79-2.26-2.2-7.54,1.07-9.34,1.86-1.02,21.34-7.51,23.11-7.63,6.27-.44,8.42,7.51,3.06,10.61Z"/>
  <path class="cls-2" d="M346.48,298.89c-.61-4.22-2.58-6.22-6.82-6.62-12.34-1.16-26.62.82-39.16.14-2.89,1.05-4.67,2.66-5.02,5.83-.27,2.38-.33,9.57.12,11.78.41,2.03,2.09,3.62,4,4.27l41.61.26c6.37-.75,5.95-10.91,5.28-15.65ZM338.86,306.77h-35.64v-6.72h35.64v6.72Z"/>
  <path class="cls-2" d="M340.62,262.87l-40.13.08c-2.58.92-4.58,2.51-4.98,5.35-.32,2.27-.38,9.63-.02,11.82.15.88,1.08,2.6,1.7,3.21.8.8,2.51,1.66,3.69,1.74l41.2-.14c3.35-1.53,4.23-3.85,4.54-7.35.45-5.24.82-13.75-6-14.71ZM338.86,277.3h-35.64v-6.72h35.64v6.72Z"/>
  <path class="cls-2" d="M320.21,325.7c-.81-2.02-2.71-3.17-4.84-3.43-2.51-.3-13.73-.35-15.78.25-.45.13-2.03,1.13-2.39,1.49-.61.61-1.55,2.33-1.7,3.21-.4,2.43-.3,12.21.79,14.15.9,1.6,3.29,2.94,5.11,3.16,2.95.36,10.47.33,13.44-.01,2.86-.32,5.6-2.43,5.95-5.42.31-2.6.29-11.24-.58-13.4ZM313.04,336.76h-9.82v-6.72h9.82v6.72Z"/>
</svg>