<?xml version="1.0" encoding="UTF-8"?>
<svg id="Layer_1" data-name="Layer 1" xmlns="http://www.w3.org/2000/svg" viewBox="0 0 500 500">
  <defs>
    <style>
      .cls-1 {
        fill: #fff;
      }
    </style>
  </defs>
  <path class="cls-1" d="M367.26,377.47v23.41c0,3.05-2.48,5.53-5.52,5.53h-223.48c-3.04,0-5.52-2.48-5.52-5.53v-16.35h-12v16.35c0,9.67,7.86,17.53,17.52,17.53h223.48c9.66,0,17.52-7.86,17.52-17.53v-11.41l-12-12ZM361.74,111.35h-18.15v12h18.15c3.04,0,5.52,2.48,5.52,5.53v51.4c5.98,10.73,10.12,22.61,12,35.23v-86.63c0-9.67-7.86-17.53-17.52-17.53Z"/>
  <path class="cls-1" d="M218.41,142.76c0,.31-.02.61-.08.91-.43,2.89-2.91,5.09-5.92,5.09h-91.06c-3.31,0-6-2.68-6-6s2.69-6,6-6h91.06c3.32,0,6,2.69,6,6Z"/>
  <path class="cls-1" d="M121.35,197h55.56c-1.34,3.9-2.46,7.91-3.33,12h-52.23c-3.31,0-6-2.69-6-6s2.69-6,6-6Z"/>
  <path class="cls-1" d="M175.02,258.88c1.13,4.11,2.51,8.11,4.13,12h-57.8c-3.31,0-6-2.69-6-6s2.69-6,6-6h53.67Z"/>
  <path class="cls-1" d="M218.41,324.17c0,3.32-2.68,6-6,6h-91.06c-3.31,0-6-2.68-6-6s2.69-6,6-6h91.06c3.32,0,6,2.69,6,6Z"/>
  <path class="cls-1" d="M326.06,77.47H102.59c-9.67,0-17.53,7.86-17.53,17.53v272c0,9.66,7.86,17.53,17.53,17.53h223.47c9.66,0,17.53-7.87,17.53-17.53v-13.2l-12-12v25.2c0,3.05-2.48,5.53-5.53,5.53H102.59c-3.05,0-5.53-2.48-5.53-5.53V95c0-3.05,2.48-5.53,5.53-5.53h223.47c3.05,0,5.53,2.48,5.53,5.53v47.56c4.22,2.66,8.22,5.62,12,8.85v-56.41c0-9.67-7.87-17.53-17.53-17.53Z"/>
  <g>
    <path class="cls-1" d="M211.28,148.76h1.13c3.01,0,5.49-2.2,5.92-5.09-2.42,1.6-4.78,3.29-7.05,5.09Z"/>
    <path class="cls-1" d="M343.59,172.46c-3.64-4.2-7.65-8.06-12-11.53-15.31-12.21-34.7-19.52-55.77-19.52-37.37,0-69.47,23-82.88,55.59-1.6,3.87-2.92,7.88-3.97,12-1.78,7.04-2.73,14.41-2.73,22,0,9.73,1.56,19.1,4.44,27.88,1.36,4.14,3.01,8.15,4.94,12,14.69,29.44,45.12,49.71,80.2,49.71,21.07,0,40.46-7.31,55.77-19.52,4.35-3.47,8.36-7.33,12-11.53,13.59-15.71,21.82-36.18,21.82-58.54s-8.23-42.83-21.82-58.54ZM331.59,281.96c-13.82,15.13-33.71,24.63-55.77,24.63-27.05,0-50.83-14.28-64.18-35.71-2.36-3.79-4.4-7.8-6.07-12-3.44-8.63-5.33-18.04-5.33-27.88,0-7.65,1.14-15.04,3.27-22,1.27-4.17,2.88-8.18,4.82-12,12.46-24.65,38.03-41.59,67.49-41.59,22.06,0,41.95,9.5,55.77,24.63,4.78,5.22,8.83,11.11,12,17.51,5.01,10.09,7.82,21.45,7.82,33.45s-2.81,23.36-7.82,33.45c-3.17,6.4-7.22,12.29-12,17.51Z"/>
  </g>
  <path class="cls-1" d="M433.49,389.22c-9.19,9.18-24.09,9.18-33.28,0l-20.95-20.95-12-12.01-23.67-23.67-3.6-3.6,3.6-3.6,23.67-23.67,6-6,6,6,54.23,54.22c9.19,9.19,9.19,24.09,0,33.28Z"/>
  <g>
    <path class="cls-1" d="M232.07,206.97h11.61v32.53c0,14.66-7.03,19.78-18.33,19.78-2.67,0-6.19-.46-8.48-1.22l1.3-9.39c1.6.53,3.67.92,5.96.92,4.89,0,7.94-2.21,7.94-10.23v-32.38Z"/>
    <path class="cls-1" d="M289.88,239.35c0,13.67-9.7,19.93-19.7,19.93-10.92,0-19.32-7.18-19.32-19.25s7.94-19.78,19.93-19.78,19.09,7.87,19.09,19.09ZM262.84,239.74c0,6.42,2.67,11.23,7.64,11.23,4.51,0,7.41-4.51,7.41-11.23,0-5.58-2.14-11.23-7.41-11.23-5.58,0-7.64,5.73-7.64,11.23Z"/>
    <path class="cls-1" d="M296.75,258.45c.15-2.44.3-6.95.3-11.15v-43.07h11.61v21.31h.15c2.21-3.21,6.11-5.27,11.3-5.27,8.94,0,15.5,7.41,15.43,18.86,0,13.44-8.55,20.16-17.11,20.16-4.35,0-8.55-1.6-11.23-6.03h-.15l-.46,5.19h-9.85ZM308.66,242.56c0,.76.08,1.45.23,2.06.76,3.13,3.44,5.5,6.8,5.5,4.96,0,8.02-3.82,8.02-10.54,0-5.8-2.6-10.39-8.02-10.39-3.13,0-6.03,2.37-6.8,5.73-.15.69-.23,1.38-.23,2.14v5.5Z"/>
  </g>
</svg>