<?xml version="1.0" encoding="UTF-8"?>
<svg id="Layer_1" data-name="Layer 1" xmlns="http://www.w3.org/2000/svg" viewBox="0 0 500 500">
  <defs>
    <style>
      .cls-1 {
        fill: #fff;
      }
    </style>
  </defs>
  <path class="cls-1" d="M449.84,249.99c-7.8-8.08-20.9-10.52-31.67-8.69-7.45,1.26-23.6,11.3-19.52,20.16.48,1.03,6.57,6.86,7.87,7.76,12.83,8.94,35.3,7.44,44.99-5.4,4.54-6.02,3.18-8.8-1.68-13.83ZM438.95,259.05c-.29.4-8.2,3.16-9.31,3.34-5.22.87-11.14-.16-15.64-3.02-1.21-.77-2.12.08-1.54-2.7,6.09-2.4,9.32-4.29,16.26-3.63,1.8.17,12.57,2.84,10.22,6ZM403.76,151.05c-13.03,1.91-28.85,17.9-26.18,31.56,1.35,6.91,17.47,7.27,23.16,6.36,12.42-1.99,25.22-14.86,26.89-27.36,1.64-12.26-14.98-11.85-23.87-10.55ZM390.81,177.21c2.69-9.64,13-15.87,22.86-14.43-1.7,9.28-13.83,15.24-22.86,14.43ZM422.4,341.23c-7.48-11.46-20.94-16.39-34.29-14.44-18.91,2.77-9.13,22.19.27,30.4,15.35,13.39,52.44,12.27,34.02-15.96ZM413.67,352.96c-9.95,1.37-20.08-4.72-22.86-14.43,6.76-.79,14.04,1.57,18.82,6.44,1.1,1.11,5.37,6.72,4.04,7.99ZM348.42,79.99c-13.72.35-27.97,14.66-29.74,28.1-.61,4.65.17,19.34,4.69,21.58,9.73,4.82,26.07-8,30.33-16.65,3.92-7.95,7.3-33.35-5.28-33.04ZM330.62,117.03c-.82-9.39,4.88-20.95,14.44-22.87,1.43,9.85-4.79,20.18-14.44,22.87ZM324.5,144.22c-64.25-41.51-148.95-23-189.39,41.53-39.54,63.1-20.73,146.21,41.5,186.12l-10.8,67.34c-.61,1.56,1.96,6.46,2.91,6.46h58.99c.27,0,3.01-3.77,3.01-4.21v-48.75c12.91,1.36,25.62,1.36,38.53,0v47.54c0,.63,3.71,5.42,4.21,5.42h57.78c1,0,3.45-4.99,3.04-6.59l-10.66-66.01c9.24-8.33,19.02-15.04,27.45-24.34,55.45-61.23,42.63-159.81-26.55-204.51ZM157.24,176.59c18.16-21.1,45.77-36.57,73.46-40.29-19.99,21.68-36.46,47.65-42.13,77.04-6.56-.79-12.45-4.61-17.96-7.94-3.34-2.03-20.11-13.88-21.24-16.17-1.11-2.22,6.08-10.56,7.87-12.64ZM129,279.53c-.78-1.39-1.71-9.14-1.87-11.38-1.03-14.25.54-30.2,4.27-43.97.81-3.02,8.03-23.3,9.08-24.03,2.57-1.77,6.04,3.44,7.8,4.73,11.39,8.38,23.08,16.1,36.16,21.69-1.34,12.03-2.52,23.96-1.91,36.12-10.54-6.79-14.4-27.79-21.63-35.53-4.7-5.04-14.85-3.6-19.32,1.2-14.58,15.7,7.7,49.82,14.46,65.64-4.49-3.3-25-10.79-27.05-14.46ZM133.21,296.39c9.41,7.12,24.37,9.5,33.78,14.96,2.66,1.55,15.06,17.8,15.54,20.63.38,2.24-2.67,24.88-3.59,25.8-21.81-13.99-37.6-36.97-45.72-61.39ZM228.05,271.41c-1.08,9.57-8.34,24.04-10.6,34.01v128.2h-37.32l15.41-101.37c-6.38-16.94-20.17-30.62-29.27-46.67-4.74-8.35-18.99-36.62-17.19-44.88.36-1.64,1.56-4.03,3.36-4.49,7.43,18.46,19.3,37.37,33.7,51.17,2.49,2.4,14.47,12.6,16.83,13.35,11.4,3.64,12.65-26.97,16.78-33.63,2.2-3.53,8.96-1.76,8.29,4.31ZM243.94,380.65c-1.75.49-13.24-.42-13.24-1.2v-55.38l13.24,1.21v55.37ZM243.94,312.04h-13.24c-1.73-16.18,22.29-48.4-.72-57.66-19.94-8.03-24.62,16.09-28.18,29.97-7-3.27-6.89-12.74-7.26-19.8-.53-10.16,1.21-20.06,1.25-30.15.08-1.21.7-2.6,1.91-2.9,1.1-.26,18.37,4.89,21.93,5.55,8,1.47,16.21,2.12,24.32,2.75v72.23ZM243.94,226.57c-15.29.72-30.32-2.97-44.58-7.88,7.23-28.85,21.66-57.06,44.58-76.38v84.26ZM344.47,178.41c1.86,2.21,7.2,8.18,6.07,10.81-1.63,3.81-36.15,26.71-37.96,25.32-7.14-29.54-22.36-56.46-43.35-78.24,28.51,3.56,56.94,20.24,75.24,42.11ZM255.98,142.31c23.04,19.23,37.75,47.31,44.59,76.35-.27,2.77-37.46,8.62-42.13,8.61-1.01,0-2.46-.44-2.46-1.31v-83.66ZM270.42,379.46l-14.44,1.2v-54.77c0-2.85,11.88-1.57,14.44-1.81v55.38ZM269.22,312.04h-13.24v-72.23c16.03-.45,31.47-4.48,46.99-7.91,2.47,1.8,2.72,30.35,2.43,35.05-.42,6.72-.61,14.13-7.27,17.39-3.47-13.64-7.18-35.86-26.54-30.72-25.19,6.69-.54,42.81-2.36,58.41ZM282.46,433.62v-129.41c0-4.6-8.87-24.62-10.08-32.16-.97-6.05,4.02-8.93,7.38-5.47,4.34,4.45,5.93,30.52,12.65,33.75,4.95,2.4,16.22-8.09,20.16-11.75,14.77-13.74,27.91-33.53,34.91-52.38,5.01,2.04,3.84,7.85,3.04,12.1-2.42,12.86-15.11,34.88-22.29,46.3-9.01,14.33-25.38,28.07-22.74,45.57l15.48,93.44h-38.51ZM329.43,352.38c-1.12.95-7.6,6.29-8.44,5.39.33-7.23-4.81-19.22-3.62-25.82.75-4.15,11.68-14.57,13.58-19.56l35.77-14.8c-7.09,20.61-20.63,40.67-37.3,54.78ZM369.59,280.59c-1.56,1.51-24.74,14.46-25.72,13.39,2.99-7.64,7.75-14.54,11.03-22.06,5.06-11.64,16.61-40.99-1.47-47.1-16.64-5.63-20.07,15.04-26.66,26.19-2.55,4.29-5.83,9.39-9.39,12.87.7-12.23.5-24.63-2.32-36.57l44.42-27.23c5.38,12.86,11.71,27.66,13.12,41.67.77,7.71,1.09,24.83.02,32.24-.4,2.85-.9,4.52-3.04,6.59ZM266,71.5c-1.66-5.84-10.29-19.84-17.53-18.05-10.89,2.7-16.12,21.85-15.4,31.73.66,9.15,10.29,29.79,21.17,23.49,11.43-6.62,15.12-25.23,11.76-37.16ZM254.5,87.28c-.57,2.68-3.27,5.1-3.35,8.08-6.86-4.4-7.2-14.91-4.48-21.94,4.97-12.79,9.42,6.36,7.83,13.86ZM159.44,81.76c-1.82-.61-8.32-2.18-9.76-1.84-9.79,2.25-7.14,25.97-3.48,33.15,6.35,12.47,32.61,29.02,35.15,5.78,1.7-15.58-6.59-31.98-21.91-37.09ZM169.3,117.03c-9.55-2.35-15.18-13.49-14.43-22.87,10.28,1.33,15.45,13.58,14.43,22.87ZM117.84,165.48c-7.84-12-21.56-16.8-35.52-14.46-17.18,2.87-8.09,21.56.29,29.23,15.68,14.35,53.98,13.92,35.23-14.77ZM86.25,162.78c9.29-1.03,21.54,4.15,22.87,14.43-9.38.74-20.52-4.89-22.87-14.43ZM100.41,326.8c-11.37,1.68-21.27,9.69-25.59,20.17-4.06,9.85-3.66,16.27,8.53,17.93,12.9,1.77,26.44-3.02,34.01-13.93,12.53-18.07,3.4-27.16-16.94-24.17ZM86.25,352.96c2.56-9.83,13.13-15.18,22.87-14.43-2.7,9.64-13.01,15.85-22.87,14.43ZM98.16,250.18c-9.7-10.08-27.22-11.9-39.47-6.03-8.05,3.85-16.73,11.75-9.32,20.53,10.41,12.33,31.96,13.37,44.71,4.03,7.2-5.27,11.31-11,4.08-18.52ZM85.92,259.37c-8.42,5.36-16.49,3.44-24.94-.32-2.46-2.69,8.42-5.81,10.22-6,3.71-.38,13.95.89,16.24,3.64,1.62,1.94-.59,2.09-1.52,2.68Z"/>
  <path class="cls-1" d="M324.5,144.22c-64.25-41.51-148.95-23-189.39,41.53-39.54,63.1-20.73,146.21,41.5,186.12l-10.8,67.34c-.61,1.56,1.96,6.46,2.91,6.46h58.99c.27,0,3.01-3.77,3.01-4.21v-48.75c12.91,1.36,25.62,1.36,38.53,0v47.54c0,.63,3.71,5.42,4.21,5.42h57.78c1,0,3.45-4.99,3.04-6.59l-10.66-66.01c9.24-8.33,19.02-15.04,27.45-24.34,55.45-61.23,42.63-159.81-26.55-204.51ZM157.24,176.59c18.16-21.1,45.77-36.57,73.46-40.29-19.99,21.68-36.46,47.65-42.13,77.04-6.56-.79-12.45-4.61-17.96-7.94-3.34-2.03-20.11-13.88-21.24-16.17-1.11-2.22,6.08-10.56,7.87-12.64ZM129,279.53c-.78-1.39-1.71-9.14-1.87-11.38-1.03-14.25.54-30.2,4.27-43.97.81-3.02,8.03-23.3,9.08-24.03,2.57-1.77,6.04,3.44,7.8,4.73,11.39,8.38,23.08,16.1,36.16,21.69-1.34,12.03-2.52,23.96-1.91,36.12-10.54-6.79-14.4-27.79-21.63-35.53-4.7-5.04-14.85-3.6-19.32,1.2-14.58,15.7,7.7,49.82,14.46,65.64-4.49-3.3-25-10.79-27.05-14.46ZM133.21,296.39c9.41,7.12,24.37,9.5,33.78,14.96,2.66,1.55,15.06,17.8,15.54,20.63.38,2.24-2.67,24.88-3.59,25.8-21.81-13.99-37.6-36.97-45.72-61.39ZM228.05,271.41c-1.08,9.57-8.34,24.04-10.6,34.01v128.2h-37.32l15.41-101.37c-6.38-16.94-20.17-30.62-29.27-46.67-4.74-8.35-18.99-36.62-17.19-44.88.36-1.64,1.56-4.03,3.36-4.49,7.43,18.46,19.3,37.37,33.7,51.17,2.49,2.4,14.47,12.6,16.83,13.35,11.4,3.64,12.65-26.97,16.78-33.63,2.2-3.53,8.96-1.76,8.29,4.31ZM243.94,380.65c-1.75.49-13.24-.42-13.24-1.2v-55.38l13.24,1.21v55.37ZM243.94,312.04h-13.24c-1.73-16.18,22.29-48.4-.72-57.66-19.94-8.03-24.62,16.09-28.18,29.97-7-3.27-6.89-12.74-7.26-19.8-.53-10.16,1.21-20.06,1.25-30.15.08-1.21.7-2.6,1.91-2.9,1.1-.26,18.37,4.89,21.93,5.55,8,1.47,16.21,2.12,24.32,2.75v72.23ZM243.94,226.57c-15.29.72-30.32-2.97-44.58-7.88,7.23-28.85,21.66-57.06,44.58-76.38v84.26ZM344.47,178.41c1.86,2.21,7.2,8.18,6.07,10.81-1.63,3.81-36.15,26.71-37.96,25.32-7.14-29.54-22.36-56.46-43.35-78.24,28.51,3.56,56.94,20.24,75.24,42.11ZM255.98,142.31c23.04,19.23,37.75,47.31,44.59,76.35-.27,2.77-37.46,8.62-42.13,8.61-1.01,0-2.46-.44-2.46-1.31v-83.66ZM270.42,379.46l-14.44,1.2v-54.77c0-2.85,11.88-1.57,14.44-1.81v55.38ZM269.22,312.04h-13.24v-72.23c16.03-.45,31.47-4.48,46.99-7.91,2.47,1.8,2.72,30.35,2.43,35.05-.42,6.72-.61,14.13-7.27,17.39-3.47-13.64-7.18-35.86-26.54-30.72-25.19,6.69-.54,42.81-2.36,58.41ZM282.46,433.62v-129.41c0-4.6-8.87-24.62-10.08-32.16-.97-6.05,4.02-8.93,7.38-5.47,4.34,4.45,5.93,30.52,12.65,33.75,4.95,2.4,16.22-8.09,20.16-11.75,14.77-13.74,27.91-33.53,34.91-52.38,5.01,2.04,3.84,7.85,3.04,12.1-2.42,12.86-15.11,34.88-22.29,46.3-9.01,14.33-25.38,28.07-22.74,45.57l15.48,93.44h-38.51ZM329.43,352.38c-1.12.95-7.6,6.29-8.44,5.39.33-7.23-4.81-19.22-3.62-25.82.75-4.15,11.68-14.57,13.58-19.56l35.77-14.8c-7.09,20.61-20.63,40.67-37.3,54.78ZM369.59,280.59c-1.56,1.51-24.74,14.46-25.72,13.39,2.99-7.64,7.75-14.54,11.03-22.06,5.06-11.64,16.61-40.99-1.47-47.1-16.64-5.63-20.07,15.04-26.66,26.19-2.55,4.29-5.83,9.39-9.39,12.87.7-12.23.5-24.63-2.32-36.57l44.42-27.23c5.38,12.86,11.71,27.66,13.12,41.67.77,7.71,1.09,24.83.02,32.24-.4,2.85-.9,4.52-3.04,6.59Z"/>
  <path class="cls-1" d="M403.76,151.05c-13.03,1.91-28.85,17.9-26.18,31.56,1.35,6.91,17.47,7.27,23.16,6.36,12.42-1.99,25.22-14.86,26.89-27.36,1.64-12.26-14.98-11.85-23.87-10.55ZM390.81,177.21c2.69-9.64,13-15.87,22.86-14.43-1.7,9.28-13.83,15.24-22.86,14.43Z"/>
  <path class="cls-1" d="M266,71.5c-1.66-5.84-10.29-19.84-17.53-18.05-10.89,2.7-16.12,21.85-15.4,31.73.66,9.15,10.29,29.79,21.17,23.49,11.43-6.62,15.12-25.23,11.76-37.16ZM254.5,87.28c-.57,2.68-3.27,5.1-3.35,8.08-6.86-4.4-7.2-14.91-4.48-21.94,4.97-12.79,9.42,6.36,7.83,13.86Z"/>
  <path class="cls-1" d="M348.42,79.99c-13.72.35-27.97,14.66-29.74,28.1-.61,4.65.17,19.34,4.69,21.58,9.73,4.82,26.07-8,30.33-16.65,3.92-7.95,7.3-33.35-5.28-33.04ZM330.62,117.03c-.82-9.39,4.88-20.95,14.44-22.87,1.43,9.85-4.79,20.18-14.44,22.87Z"/>
  <path class="cls-1" d="M100.41,326.8c-11.37,1.68-21.27,9.69-25.59,20.17-4.06,9.85-3.66,16.27,8.53,17.93,12.9,1.77,26.44-3.02,34.01-13.93,12.53-18.07,3.4-27.16-16.94-24.17ZM86.25,352.96c2.56-9.83,13.13-15.18,22.87-14.43-2.7,9.64-13.01,15.85-22.87,14.43Z"/>
  <path class="cls-1" d="M159.44,81.76c-1.82-.61-8.32-2.18-9.76-1.84-9.79,2.25-7.14,25.97-3.48,33.15,6.35,12.47,32.61,29.02,35.15,5.78,1.7-15.58-6.59-31.98-21.91-37.09ZM169.3,117.03c-9.55-2.35-15.18-13.49-14.43-22.87,10.28,1.33,15.45,13.58,14.43,22.87Z"/>
  <path class="cls-1" d="M449.84,249.99c-7.8-8.08-20.9-10.52-31.67-8.69-7.45,1.26-23.6,11.3-19.52,20.16.48,1.03,6.57,6.86,7.87,7.76,12.83,8.94,35.3,7.44,44.99-5.4,4.54-6.02,3.18-8.8-1.68-13.83ZM438.95,259.05c-.29.4-8.2,3.16-9.31,3.34-5.22.87-11.14-.16-15.64-3.02-1.21-.77-2.12.08-1.54-2.7,6.09-2.4,9.32-4.29,16.26-3.63,1.8.17,12.57,2.84,10.22,6Z"/>
  <path class="cls-1" d="M117.84,165.48c-7.84-12-21.56-16.8-35.52-14.46-17.18,2.87-8.09,21.56.29,29.23,15.68,14.35,53.98,13.92,35.23-14.77ZM86.25,162.78c9.29-1.03,21.54,4.15,22.87,14.43-9.38.74-20.52-4.89-22.87-14.43Z"/>
  <path class="cls-1" d="M422.4,341.23c-7.48-11.46-20.94-16.39-34.29-14.44-18.91,2.77-9.13,22.19.27,30.4,15.35,13.39,52.44,12.27,34.02-15.96ZM413.67,352.96c-9.95,1.37-20.08-4.72-22.86-14.43,6.76-.79,14.04,1.57,18.82,6.44,1.1,1.11,5.37,6.72,4.04,7.99Z"/>
  <path class="cls-1" d="M98.16,250.18c-9.7-10.08-27.22-11.9-39.47-6.03-8.05,3.85-16.73,11.75-9.32,20.53,10.41,12.33,31.96,13.37,44.71,4.03,7.2-5.27,11.31-11,4.08-18.52ZM85.92,259.37c-8.42,5.36-16.49,3.44-24.94-.32-2.46-2.69,8.42-5.81,10.22-6,3.71-.38,13.95.89,16.24,3.64,1.62,1.94-.59,2.09-1.52,2.68Z"/>
</svg>