<?xml version="1.0" encoding="UTF-8"?>
<svg id="Layer_1" data-name="Layer 1" xmlns="http://www.w3.org/2000/svg" viewBox="0 0 500 500">
  <defs>
    <style>
      .cls-1 {
        fill: #fff;
      }
    </style>
  </defs>
  <path class="cls-1" d="M350.48,84.39c27.43,26.91,28.28,72.58,3.06,101.35l-102.69,101.21-4.12.73-107.76-106.03c-56.04-74.28,39.56-160.96,107.93-98.01,30.08-25.37,74.52-27.76,103.57.74ZM303.42,212.02c2.39.65,2.73-.65,4.12-1.6,5.78-3.98,34.1-32.63,38.59-38.67,39.88-53.71-28.06-122.23-82.97-81.32-4.78,3.56-9.5,12.24-16.42,11.51-9.82-6.67-17.66-15.85-28.85-20.57-46.92-19.78-93.67,24.81-78.01,73.08,7.33,22.6,34.31,39.82,49.27,57.55,8.52-10.95,18.43-21.74,32.05-26.29-24.79-28.6-4.97-69.34,33.55-63.94,29.18,4.09,38.54,44.59,17.41,63.94,12.51,4.37,25.98,13.75,31.26,26.31ZM263.38,141.91c-22.37-22.16-55.55,14.9-29.86,33.97,23.28,17.28,48.07-15.93,29.86-33.97ZM245.49,194.4c-8.44.18-16.94,2.81-24.16,7.08-5.02,2.97-19.98,15.6-19.83,21.28.1,3.74,40.11,41.83,46.59,46.68l45.45-46.7c-8.21-17.27-29.24-28.74-48.05-28.34Z"/>
  <path class="cls-1" d="M134.08,390.37c-.46-4.31-6.01-10.41-9.02-13.99-20.76-24.8-60.42-58.79-71.13-88.32-10.58-29.18-14.83-64.8-23.42-94.96,1.53-15.05,13.48-26.76,28.9-20.64,13.43,5.33,23.72,39.95,30.41,52.61,5.91-.26,8.94-3.53,15.51-3.33,14.16.43,21.42,16.74,30.35,25.67,25.56,25.57,84.84,46.85,98.46,77.42,6.97,15.64,7.34,85.93,5.17,105.02-.35,3.08-.85,6-3.3,8.21l-101.93-.84v-46.85ZM144.77,376.4h79.72v-36.98c0-23.81-69.63-56.09-87.89-71.55-5.42-4.59-28.82-30.98-31.35-31.24-6.34-.64-6.9,4.93-4.44,9.5l55.63,72.71c2.48,8.35-6.14,12.68-12.4,7.33-16.12-24.64-40.44-47.79-55.7-72.51-5.85-9.47-29.96-65.16-33.13-67.15-5.96-2.76-10.89,1.83-9.83,8.03,7.82,26.66,11.82,55.56,20.12,81.96,6.3,20.03,15.29,28.51,28.27,44.05,16.11,19.28,33.96,37.38,50.98,55.86ZM224.49,391.19h-77.26v32.87h77.26v-32.87Z"/>
  <path class="cls-1" d="M365.85,437.22l-101.93.84c-2.45-2.21-2.95-5.12-3.3-8.21-2.17-19.09-1.8-89.37,5.17-105.02,13.74-30.84,69-49.65,94.35-73.31,15.67-14.63,23.68-38.98,50.02-26.36,7.13-12.72,16.67-47.27,30.35-52.7,15.32-6.08,29.6,6.86,28.94,22.23-.63,14.65-14.19,61.59-18.94,78.16-13.78,48.02-54.31,76.59-84.66,114.23v50.13ZM275.44,376.4h79.72c17.37-19.17,36.11-37.59,52.62-57.51,12.35-14.89,20.63-23.36,26.63-42.41,8.17-25.96,12.03-54.37,19.87-80.55,1.37-5.83-3.48-13.24-9.58-9.43l-33.13,67.15-55.7,72.51c-6.25,5.36-14.88,1.02-12.4-7.33l55.63-72.71c2.46-4.56,1.91-10.14-4.43-9.5-4.84.49-6.91,6.91-9.91,9.94-12.72,12.83-24.19,24.5-39.43,34.54-15.88,10.47-69.9,36.72-69.9,58.31v36.98ZM352.7,391.19h-77.26v32.87h77.26v-32.87Z"/>
</svg>